<svg width="120" height="32" viewBox="0 0 120 32" xmlns="http://www.w3.org/2000/svg"><title>texture1</title><g fill="none"><g id="trees"><path d="M25.009 28.842l-5.702.602c1.599-.727 1.763-1.06 2.43-1.824-.972.012-1.926-.148-1.926-.148s2.285-2.088 3.122-4.101c-.41.043-.552.058-1.533.005.899-1.055 1.863-2.549 2.076-3.427l-.895.094c.887-1.162.876-1.814 1.219-2.643.652.868.317.637 1.739 2.331l-.946.1s.9 2.027 2.687 2.924c-.749.236-1.296.353-1.296.353s1.984 2.422 3.195 2.943c-.587.386-.815.446-1.499.716.579.795 1.205 1.089 3.03 1.473l-5.703.602zm0 0M34.803 28.842l5.702.602c-1.599-.727-1.763-1.06-2.43-1.824.972.012 1.926-.148 1.926-.148s-2.285-2.088-3.122-4.101c.41.043.552.058 1.533.005-.899-1.055-1.863-2.549-2.076-3.427l.895.094c-.887-1.162-.876-1.814-1.219-2.643-.652.868-.317.637-1.739 2.331l.946.1s-.9 2.027-2.687 2.924c.749.236 1.296.353 1.296.353s-1.984 2.422-3.195 2.943c.587.386.815.446 1.499.716-.579.795-1.205 1.089-3.03 1.473l5.703.602zm0 0" id="Path 17" fill="#37A065"/><path d="M29.999 32h-8.999c2.616-.872 2.926-1.364 4.093-2.447-1.519-.141-2.982-.548-2.982-.548s3.91-2.883 5.549-5.886c-.647 0-.872 0-2.393-.245 1.577-1.498 3.328-3.672 3.805-5.007h-1.412c1.575-1.667 1.665-2.687 2.338-3.924.874 1.463.39 1.046 2.331 3.924h-1.493s1.071 3.312 3.713 5.007c-1.208.245-2.081.338-2.081.338s2.698 4.107 4.502 5.119c-.98.506-1.346.562-2.457.871.774 1.336 1.702 1.898 4.486 2.799h-9.001zm0 0" id="Path 17" fill="#39DE7F"/></g><g><path d="M85.009 28.842l-5.702.602c1.599-.727 1.763-1.06 2.43-1.824-.972.012-1.926-.148-1.926-.148s2.285-2.088 3.122-4.101c-.41.043-.552.058-1.533.005.899-1.055 1.863-2.549 2.076-3.427l-.895.094c.887-1.162.876-1.814 1.219-2.643.652.868.317.637 1.739 2.331l-.946.1s.9 2.027 2.687 2.924c-.749.236-1.296.353-1.296.353s1.984 2.422 3.195 2.943c-.587.386-.815.446-1.499.716.579.795 1.205 1.089 3.03 1.473l-5.703.602zm0 0M94.803 28.842l5.702.602c-1.599-.727-1.763-1.06-2.43-1.824.972.012 1.926-.148 1.926-.148s-2.285-2.088-3.122-4.101c.41.043.552.058 1.533.005-.899-1.055-1.863-2.549-2.076-3.427l.895.094c-.887-1.162-.876-1.814-1.219-2.643-.652.868-.317.637-1.739 2.331l.946.1s-.9 2.027-2.687 2.924c.749.236 1.296.353 1.296.353s-1.984 2.422-3.195 2.943c.587.386.815.446 1.499.716-.579.795-1.205 1.089-3.03 1.473l5.703.602zm0 0" id="Path 17" fill="#37A065"/><path d="M89.999 32h-8.999c2.616-.872 2.926-1.364 4.093-2.447-1.519-.141-2.982-.548-2.982-.548s3.91-2.883 5.549-5.886c-.647 0-.872 0-2.393-.245 1.577-1.498 3.328-3.672 3.805-5.007h-1.412c1.575-1.667 1.665-2.687 2.338-3.924.874 1.463.39 1.046 2.331 3.924h-1.493s1.071 3.312 3.713 5.007c-1.208.245-2.081.338-2.081.338s2.698 4.107 4.502 5.119c-.98.506-1.346.562-2.457.871.774 1.336 1.702 1.898 4.486 2.799h-9.001zm0 0" fill="#39DE7F"/></g><g id="mt"><path d="M0 2l30 30h-30zm0 0" id="Path" fill="#424A5B"/><path d="M0 .742c.821.915 2.345 2.229 2.684 3.414.411 1.437 1.569 1.344 5.378 4.438 3.809 3.094 2.684 3.469 5.278 6.719-.789.357-4.67-1.57-5.594-.531-.942 1.059-.188 4.813-1.5 5.969-.188-2.719-2.408-4.5-3.153-6.125-.745-1.625-1.415-3.812-3.003-1.438l-.09.149zm0 0" id="Path 37" fill="#D4D4D4"/></g><g id="mt"><path d="M30 32l30-30 30 30h-60zm0 0" id="Path" fill="#424A5B"/><path d="M50 12c-.441.969-.597 5.594-.597 5.594s3.712-4.36 4.625-3.844c1.255.708 2.469 5.062 3.532 4.718 1.5-1.375 1.834-4.24 2.531-5.281 1.589-2.375 2.259-.188 3.003 1.438.745 1.625 2.965 3.406 3.153 6.125 1.313-1.156.558-4.91 1.5-5.969.924-1.039 4.805.888 5.594.531-2.594-3.25-1.469-3.625-5.278-6.719-3.809-3.094-4.967-3-5.378-4.438-.411-1.437-2.563-3.063-3.094-3.937-1.438 2.656-3.898 3.875-4.497 4.969-.599 1.094-4.653 5.844-5.094 6.813zm0 0" id="Path 37" fill="#D4D4D4"/></g><g><path d="M90 32l30-30v30zm0 0" fill="#424A5B"/><path d="M110 12c.441-.969 4.495-5.718 5.094-6.813.599-1.094 3.059-2.312 4.497-4.969.093.153.235.329.41.523v12.594c-.638 1.143-1.007 3.818-2.44 5.132-1.063.344-2.277-4.01-3.532-4.718-.913-.516-4.625 3.844-4.625 3.844s.156-4.625.597-5.594zm0 0" fill="#D4D4D4"/></g></g></svg>