<svg width="54" height="27" viewBox="0 0 54 27" xmlns="http://www.w3.org/2000/svg"><title>texture12</title><g fill="#FB6F73"><path d="M8.623 22.52l-8.522 4.48 1.628-9.489-1.728-1.685v-2.837l2.507-.911-2.507-1.787v-1.104h2.076l-1.975-3.711 4.261 3.93-.776-9.281 3.884 3.538 1.152-2.891 1.623 3.289 4.516-1.649-3.365 5.092 5.177-1.079-.647 3.927 6.485.439-2.945 3.617-3.949 3.103 1.628 9.489zm0 0M26.623 22.52l-8.522 4.48 1.628-9.489-3.848-3.751 4.627-1.682-4.056-2.891h3.625l-1.975-3.711 4.261 3.93-.776-9.281 3.884 3.538 1.152-2.891 1.623 3.289 4.516-1.649-3.365 5.092 5.177-1.079-.647 3.927 6.485.439-2.945 3.617-3.949 3.103 1.628 9.489-8.522-4.48zm0 0"/><path d="M44.623 22.52l-8.522 4.48 1.628-9.489-3.848-3.751 4.627-1.682-4.056-2.891h3.625l-1.975-3.711 4.261 3.93-.776-9.281 3.884 3.538 1.152-2.891 1.623 3.289 4.516-1.649-3.365 5.092 5.177-1.079-.647 3.927 2.073.14v5.068l-2.483 1.951 1.628 9.489zm0 0"/></g></svg>