<svg width="160" height="20" viewBox="0 0 160 20" xmlns="http://www.w3.org/2000/svg"><title>texture6</title><g fill="#D8D8D8"><path d="M10 20c5.523 0 10-3.582 10-8s-4.477-8-10-8-10 3.582-10 8 4.477 8 10 8zm0 0M50 20c5.523 0 10-3.582 10-8s-4.477-8-10-8-10 3.582-10 8 4.477 8 10 8zm0 0M90 20c5.523 0 10-3.582 10-8s-4.477-8-10-8-10 3.582-10 8 4.477 8 10 8zm0 0M130 20c5.523 0 10-3.582 10-8s-4.477-8-10-8-10 3.582-10 8 4.477 8 10 8zm0 0"/><path d="M0 0h160v14h-4.144c-1.361-1.851-3.258-3-5.356-3s-3.995 1.149-5.356 3h-29.288c-1.361-1.851-3.258-3-5.356-3s-3.995 1.149-5.356 3h-29.288c-1.361-1.851-3.258-3-5.356-3s-3.995 1.149-5.356 3h-29.288c-1.361-1.851-3.258-3-5.356-3s-3.995 1.149-5.356 3h-25.144zm0 0"/></g></svg>