<svg width="160" height="30" viewBox="0 0 160 30" xmlns="http://www.w3.org/2000/svg"><title>texture5</title><g fill="#D8D8D8"><path d="M10 30c5.523 0 10-4.477 10-10s-4.477-10-10-10-10 4.477-10 10 4.477 10 10 10zm0 0M50 30c5.523 0 10-4.477 10-10s-4.477-10-10-10-10 4.477-10 10 4.477 10 10 10zm0 0M90 30c5.523 0 10-4.477 10-10s-4.477-10-10-10-10 4.477-10 10 4.477 10 10 10zm0 0M130 30c5.523 0 10-4.477 10-10s-4.477-10-10-10-10 4.477-10 10 4.477 10 10 10zm0 0"/><path d="M0 0h160v20c0-5.523-4.477-10-10-10s-10 4.477-10 10h-20c0-5.523-4.477-10-10-10s-10 4.477-10 10h-20c0-5.523-4.477-10-10-10s-10 4.477-10 10h-20c0-5.523-4.477-10-10-10s-10 4.477-10 10h-20zm0 0"/></g></svg>