<svg width="120" height="18" viewBox="0 0 120 18" xmlns="http://www.w3.org/2000/svg"><title>texture8</title><g fill="none"><path d="M0 2c7.18 0 13 3.582 13 8s-5.82 8-13 8zm0 0M40 18c7.18 0 13-3.582 13-8s-5.82-8-13-8-13 3.582-13 8 5.82 8 13 8zm0 0M80 18c7.18 0 13-3.582 13-8s-5.82-8-13-8-13 3.582-13 8 5.82 8 13 8zm0 0M120 18c-7.18 0-13-3.582-13-8s5.82-8 13-8zm0 0" fill="#4C5363"/><path d="M20 18c5.523 0 10-3.358 10-7.5 0-4.142-4.477-7.5-10-7.5s-10 3.358-10 7.5c0 4.142 4.477 7.5 10 7.5zm0 0M60 18c5.523 0 10-3.358 10-7.5 0-4.142-4.477-7.5-10-7.5s-10 3.358-10 7.5c0 4.142 4.477 7.5 10 7.5zm0 0M100 18c5.523 0 10-3.358 10-7.5 0-4.142-4.477-7.5-10-7.5s-10 3.358-10 7.5c0 4.142 4.477 7.5 10 7.5zm0 0" opacity=".773" fill="#F86B9D"/><path d="M0 0h120v14h-11.264l-.017-.015c-2.177-1.845-5.368-2.985-8.719-2.985-3.365 0-6.54 1.126-8.719 2.985l-.017.015h-22.528l-.017-.015c-2.177-1.845-5.368-2.985-8.719-2.985-3.365 0-6.54 1.126-8.719 2.985l-.017.015h-22.528l-.017-.015c-2.177-1.845-5.368-2.985-8.719-2.985-3.365 0-6.54 1.126-8.719 2.985l-.017.015h-11.264zm0 0" fill="#4C5363"/></g></svg>