<svg xmlns="http://www.w3.org/2000/svg" viewBox="0 0 360 65"><path d="M15.8 7.2c1.1 0 2.2 0 3.3.1 1.1.1 2.1.1 3.1.1.4 0 .7-.1 1.1-.2.4 0 .8-.1 1.1-.1.4 0 .7.1 1 .2.3.1.6.2.9.2.3 0 .5 0 .8-.1l.8-.1c.4 0 .6.1.8.4h.2c.3 0 .6.1.8.2.2.1.5.2.8.2.2 0 .3 0 .3-.1l1.1.2c.4.1.7.2.9.3.3.1.5.2.6.4.2.2.4.3.7.4.4.4.9.6 1.5.8.6.2 1 .4 1.1.8.4.2.7.4 1 .9.2.4.5.8.7 1.1.3.3.5.5.9.8.3.3.5.6.6 1 0 .5.1.9.3 1.2.2.3.5.6.9.9v.5c0 .8.2 1.5.6 2.1.4.6.6 1.2.6 1.9 0 .2.1.4.2.5.1.2.2.3.2.5 0 .1 0 .2-.1.4s-.1.3-.1.5c0 .4.1.7.2 1 .1.3.2.6.2 1 0 .6-.1 1-.3 1.4-.2.4-.3.9-.3 1.4v.4c-.1.5-.2.9-.3 1.2-.2.3-.2.7-.2 1.1 0 .5-.1.8-.3 1.1-.2.3-.4.6-.5 1 0 .6-.2 1.1-.6 1.4-.4.4-.7.8-.9 1.2-.1.3-.3.5-.5.7s-.3.4-.3.8c-.3.4-.6.7-1 1-.4.3-.7.6-1 1-.4.3-.8.6-1.4.9-.6.3-1.1.6-1.8.8-.6.3-1.2.5-1.8.6s-1.2.2-1.7.2c-1 0-1.8.1-2.3.3-.5.2-1.1.3-1.7.3h-.6l-.6-.1c-.4.1-.7.2-.9.2-.4 0-.8-.1-1.3-.2-.4-.1-.9-.2-1.5-.2h-.5c-.3-.1-.6-.2-.8-.2-.4 0-.6.1-.9.2l-.6.5c-.2.2-.3.4-.5.7 0 .4-.1.8-.2 1.1-.1.3-.2.7-.2 1 0 .3.1.6.2.8.1.2.1.4.1.7 0 .3 0 .5-.1.7 0 .2.1.5.1.9 0 .3 0 .5-.1.7l-.1.4c0 .2 0 .2.1.3 0 0 .1.1.1.2v.2c0 .2 0 .4.1.6 0 .2.1.4.1.7 0 .6 0 1.2-.1 1.8-.1.6-.1 1.2-.1 1.8v.8l.1.8c-.4.7-.8 1.2-1.3 1.5-.5.3-1.2.4-2 .4h-8.4c-.5 0-.9 0-1.3-.1s-.6-.6-.8-1c0-.4-.1-.8-.3-1.1-.2-.3-.3-.7-.3-1.1 0-.2.1-.5.2-.8l-.1-.1c0-.1 0-.2.1-.2 0 0 .1 0 .1-.2 0-.1-.1-.3-.2-.5s-.2-.4-.2-.7c0-.3 0-.6.1-1l.1-.9v-1.2c0-.3 0-.6.1-.9l.1-.9c0-.4-.1-.8-.2-1.1h.1l.1-.5c0-.3 0-.6-.1-.8-.1-.2-.1-.5-.1-.7 0-.9 0-1.7.1-2.6 0-.8.1-1.7.1-2.6v-2.2c0-.7 0-1.5-.1-2.2l.2-.7v-1c0-.7.1-1.3.4-1.9l-.3-.6c-.1-.2-.2-.4-.2-.5 0-.3 0-.5.2-.7.1-.2.2-.5.2-.7 0-.3-.1-.5-.2-.6-.1-.2-.2-.4-.2-.6 0-.3.1-.5.3-.7v-.4c0-.2 0-.4-.1-.7-.1-.3-.1-.5-.1-.8s0-.6.2-.9c-.1-.2-.1-.4-.1-.7v-1.7000000000000002c0-.3 0-.5-.1-.7-.1-.2-.1-.4-.1-.7 0-.2 0-.4.1-.6s.1-.5.1-.7c-.1-.2-.2-.5-.2-.8 0-.3 0-.5.1-.7l.1-.6c0-.3-.1-.6-.2-1s-.2-.6-.3-.6v-.3c.1-.2.2-.3.2-.5l.1-.5c-.3-.4-.4-.9-.3-1.5v-1.6c0-1.3.2-2.2.7-2.7.5-.5 1-.9 1.6-1 .6-.1 1.1-.2 1.6-.1.4.1.7.1.7 0h1.4c.9 0 1.7 0 2.6.1.8.1 1.6.1 2.4.1h.7s.5-.1.7-.1zm-5.5 19.3l-.2-.1h-.2c-.1 0-.2 0-.2-.1l-.2-.1c-.1 0-.3 0-.6.1s-.5.1-.5.2c0 .2.1.3.2.4.1.1.2.2.3.2.3 0 .6-.1.8-.2.1-.2.3-.3.6-.4zm-.7-7.4c0-.1-.1-.2-.2-.2v.1l.1.2c0-.1 0-.1.1-.1zm.4-2.7s-.1-.1-.2-.1-.2 0-.2.1 0 .1.1.1c.1.1.1.1.2.1h.1c.1-.1.1-.1 0-.2.1.1 0 .1 0 0zm.7 5v-.2c-.1.1-.3.1-.5.1s-.4.1-.5.3l.2.2c.1 0 .2 0 .3-.2.2-.1.3-.2.5-.2zm2.5 9.2s.1 0 .1-.2c0-.1-.1-.2-.3-.2-.2 0-.4 0-.5.1-.1.1-.3.1-.5.1h-.6c-.3 0-.5.1-.7.2.1.2.2.3.6.4.3.1.6.1.7.1.6 0 .9-.2 1.2-.5zm.2 7.1l-.6-.2c-.2-.1-.5-.1-.7-.1-.2 0-.4 0-.7.1-.3.1-.4.2-.4.3 0 .3.2.4.5.6.4.1.7.2.9.2.3 0 .5-.1.7-.3.2-.1.3-.3.3-.6zm-.5 4.5c-.1-.1-.3-.1-.5-.1h-.8999999999999999v.1h-.3l-.2.1c0 .2.1.4.3.5.2.1.3.2.5.2s.4 0 .7-.1c.2-.2.4-.3.4-.7zm.3-6.8v-.5c0-.2-.1-.3-.2-.3-.2 0-.6.1-1.1.2s-.8.3-.8.5.1.3.2.5h.2c.1 0 .2 0 .3.1.1.1.2.1.3.1.3 0 .5-.1.6-.3.2-.2.4-.3.5-.3zm-.5 9.6l-.6-.1c-.3 0-.6.1-.9.2 0 .1 0 .1.1.1 0 0 .1 0 .1.1v.1h.2c.1 0 .2 0 .3.1.1.1.2.1.4.1l.2-.1c.1-.1.2-.2.2-.5zm.7-23.9c-.3 0-.6-.1-.8-.4-.2-.3-.5-.4-.8-.4-.3 0-.4.1-.4.4 0 .2.2.3.5.3h.9c.2.3.3.5.5.6.2.2.5.3.8.3h.2c-.1-.3-.2-.4-.4-.5s-.3-.2-.5-.3zm-.8-6.3c-.1-.1-.3-.2-.5-.2-.4 0-.6.1-.6.4 0 .2.1.2.3.2.2 0 .3 0 .5-.1s.3-.1.3-.2v-.1zm3.2 11.7c-.1-.1-.3-.2-.5-.3-.3-.1-.5-.1-.7-.1-.2 0-.4 0-.6.1-.3.1-.4.1-.4.2.3.1.5.2.7.4.2.2.5.3 1 .3.1 0 .2 0 .4-.1s.2-.2.2-.3v-.2zm-.9-10.4c0-.2-.1-.2-.2-.2h-.5c-.1.2-.2.3-.4.3-.2.1-.2.2-.2.4s.1.2.3.2c.1 0 .3 0 .6-.1s.4-.3.4-.6zm0 2.8c-.2 0-.3 0-.5-.1s-.3 0-.3.1c0 .2.1.4.3.5h.5s.1-.1 0-.5c.1.1.1 0 0 0zm1.1 18.5c-.4 0-.6-.2-.8-.5-.2-.4-.5-.5-.9-.5-.1.2-.1.3-.1.4 0 .2.1.4.4.5.3.2.5.3.8.4l.8.3.3.1c.3 0 .4-.1.4-.2-.4-.3-.7-.4-.9-.5zm-.2-2.9c0-.4-.2-.5-.5-.5-.2 0-.4 0-.5.1l-.4.2c0 .2.1.3.3.3h.5c.3-.1.5-.1.6-.1zm-.2-4.7v-.2c0 .1-.1.1 0 .2zm1.8-11.9l-.2-.3c-.1 0-.1-.1-.2-.2-.1.1-.1.1-.2.1h-.5c-.2 0-.2.1-.2.2 0 .2.1.4.3.5.1.1.2.1.4.1.1 0 .2 0 .3-.1.1-.2.2-.3.3-.3zm1.3 18.1c-.2-.4-.5-.6-1.1-.6-.5 0-.8.1-.9.2 0 .3.3.5.8.5h.5c.3-.1.5-.1.7-.1zm4.4-16.9c-.4-.1-.7-.2-1.1-.2-.4 0-.8-.1-1.1-.3-.4.1-.8.2-1.1.2l-.9.2c-.3.1-.5.2-.7.5-.2.3-.3.6-.4.9l-.4.9c-.1.3-.3.4-.5.4h.1c.3 0 .4.2.5.6.1.4.2.7.2.9 0 .6-.1 1.1-.2 1.6s-.2.9-.2 1.3c0 .3 0 .5.1.7 0 .2.1.4.1.7v.3c.2.4.3.8.5 1.1.2.3.5.6.9.8.7-.1 1.4-.2 2.2-.2.8 0 1.5-.1 2.2-.2.7-.1 1.3-.3 1.9-.6.6-.3 1.1-.8 1.4-1.4.1-.3.2-.6.4-.8.2-.2.3-.5.5-.8v-1.2c0-.5.1-.9.3-1.3-.1-.3-.2-.4-.4-.6-.2-.1-.2-.3-.2-.6-.4-.2-.6-.5-.6-.9s-.2-.7-.7-.8c-.6-.1-1-.3-1.3-.6-.4-.3-.8-.5-1.5-.6zm-4.4 12.2c-.2-.1-.4-.2-.5-.2-.5 0-.7.1-.7.3v.2h.5c.1 0 .2 0 .2.1.1-.1.2-.1.3-.1.2 0 .2 0 .2-.3zm1 5.2c-.1-.3-.2-.4-.3-.4-.2 0-.3 0-.5-.1 0 .1.1.2.3.4l.3.3c.1.1.2 0 .2-.2zm1.8-4.5v-.30000000000000004c-.4.2-.6.3-.6.5h.2c.1.1.2 0 .4-.2zm.7 3.4c-.3-.4-.6-.6-1-.7 0 .3.1.4.2.6l.5.3c.2 0 .3 0 .3-.2zm2.9-4.1c-.1 0-.1-.1-.1-.2s-.1-.1-.2-.1h-.1c-.3-.1-.5-.2-.6-.2-.3 0-.5.1-.8.2.1.1.1.2.1.3 0 .1 0 .1.2.1h.1c.1.1.2.1.4.1s.3.1.4.2c.2 0 .3 0 .3-.2.1.1.1.1.2.1.1.1.1-.1.1-.3zm1.6-14.9c0-.2-.1-.2-.2-.2h-.5v.2c0 .1.1.2.2.2s.2.1.3.2v-.1s0-.1.1 0l.1-.3zm3.8 17.5c-.2-.2-.3-.2-.5-.2-.4 0-.6.2-.6.5 0 .1.1.2.2.2.1.1.2.1.3.1.2 0 .3-.1.4-.2 0-.2.1-.3.2-.4zm.3-16.6c0-.2-.1-.2-.2-.2-.2 0-.3.1-.5.2 0 .3.1.4.4.4.1 0 .2 0 .2-.1s0-.2.1-.3zm1.6 15.7c0-.2-.1-.2-.2-.2h-.2c0 .2 0 .2.1.2h.3zm1.6-4.6c-.3-.1-.5-.1-.7-.2-.2-.1-.4-.1-.7-.1-.2 0-.3.1-.3.2 0 .2.1.3.2.4.2.1.3.2.5.2h.8l.2-.2v-.3zm.9-6.4h-.4c-.2 0-.4 0-.5-.1l-.3-.2h-.6000000000000001c-.2 0-.2.1-.2.2 0 .2.2.4.6.5.4.1.7.2.8.2h.6c.3 0 .4-.1.4-.2s-.1-.2-.2-.2h-.1c-.1-.1-.1-.2-.1-.2zm.2-2.4c0-.3-.2-.5-.5-.5-.4 0-.7.1-.8.3 0 .1.1.2.2.2h1.0999999999999999zm1.5 6c-.3-.4-.7-.6-1.4-.6-.1 0-.2.1-.2.2s0 .2-.1.2c0 .3.2.4.5.4s.5.1.7.2c0-.1.1-.1.2-.1l.3-.3zM75.1 7.1h1.1c.4 0 .6 0 .8.1.3 0 .5-.1.8-.2l.9-.1s.6.1 1 .3l.9.6.9.8c.1.8.3 1.4.6 2 .3.6.5 1.3.6 2.1.2.2.3.4.4.6 0 .3.1.5.2.8 0 .3.1.5.2.8.1.3.2.5.5.6-.1.2-.1.4-.1.6 0 .5.2.9.5 1.1.3.2.5.6.5 1.2v.4c.2.1.4.3.5.6.1.3.2.6.2.9 0 .3.1.6.2.8.1.3.2.4.4.4-.1.1-.1.3-.1.5 0 .4.1.7.4 1 .3.2.4.5.4.9.3.5.5 1 .5 1.6 0 .6.2 1.1.6 1.4.2 1.2.5 2.1 1 2.9v.8c0 .3.1.6.4 1 .3.4.4.9.4 1.4v.3c.2.1.3.3.4.6s.1.4.1.3c0 .5.1.9.4 1.1.3.3.4.6.4 1.1 0 .2 0 .4-.1.5.1.3.3.6.5.8.2.2.3.5.3 1v.3c.1.5.3.9.6 1.2.3.3.5.7.5 1.3v.6c.6.7.9 1.5 1.1 2.6.2 1.1.5 2 1.1 2.7.1.5.2 1 .3 1.6.1.6.4 1.1.8 1.5.2.3.2.5.3.8l.1.9c.1.4.3.8.5 1.1s.3.7.3 1.1c0 .4.1.7.3 1 .2.2.3.6.3 1-.3.2-.4.3-.6.6l-.4.7s-.3.4-.5.6c-.2.2-.5.2-.8.2-.2 0-.4-.1-.7-.2v.1h-.7c-.7 0-1.4 0-2.1-.1-.7-.1-1.3-.1-2.1-.1-.5 0-1 0-1.4.1-.4.1-.9.1-1.3.1-1 0-2-.1-2.9-.4-.9-.3-1.5-.8-1.9-1.5.1-.4.2-.7.2-.8 0-.6-.1-1-.4-1.3-.3-.3-.4-.7-.4-1.2 0-.4 0-.6.1-.8 0-.4-.1-.6-.4-.8-.3-.2-.4-.4-.4-.8v-.5c0-.7-.2-1.1-.6-1.2-.4-.1-.9-.2-1.3-.2h-1c-.3.1-.6.1-.9.1h-1c-1 0-2 0-2.8-.1-.9-.1-1.8-.1-2.7-.1-.2.1-.4.2-.7.3-.3.1-.6.2-1 .2-.5 0-1 0-1.5-.1-.5 0-1-.1-1.6-.1h-2.2c-.4 0-.6.1-.8.4-.2.3-.4.6-.5.9-.1.3-.2.8-.3 1.3-.2.5-.3 1-.3 1.6-.1.6-.3 1.1-.6 1.3-.1.4-.2.7-.2 1.1 0 .4-.1.7-.3 1l-1.1.9c-.4.3-.8.5-1.1.5-.7 0-1.3-.1-1.9-.2l-1.1-.2c-.5 0-.8.1-1.1.3-.3.2-.7.3-1.1.3-.5 0-1 0-1.4-.1s-1-.1-1.5-.1h-1.7000000000000002c-.7 0-1.4-.2-2-.5-.6-.3-.9-.8-.9-1.5s.1-1.2.3-1.6c.2-.4.3-.8.3-1.2 0-.4.1-.7.3-.9.2-.2.3-.5.3-.9v-.2c.1-.3.3-.6.5-.8.3-.2.4-.5.4-1v-.3c.3-1.1.6-1.9.8-2.4.3-.5.5-.9.6-1.2.2-.3.3-.5.4-.6s.1-.4.1-.8v-.4c0-.4.1-.6.4-.8.3-.2.4-.5.4-.8 0-.3-.1-.4-.2-.5.1 0 .1-.1.3-.4l.4-.8c.1-.3.2-.6.3-.8.1-.2.2-.3.2-.2.1-.3.2-.5.2-.8 0-.3.1-.6.2-.9.2-.7.4-1.3.7-1.9.3-.6.5-1.2.6-1.8.3-.3.4-.6.4-1.1s.1-.8.4-1.1c.1-.3.2-.5.3-.7s.2-.5.3-.7c.3-.4.4-.8.5-1.3.1-.5.3-.9.6-1.3v.1c0-.6.1-1 .4-1.4.3-.4.4-.8.5-1.4.2-.2.3-.4.4-.6l.2-.9c0-.3.1-.6.2-.9.1-.3.2-.5.3-.7.1-.2.2-.5.2-1.1 0-.6.2-.9.5-1.1.4-.5.5-1 .6-1.6 0-.6.2-1.1.6-1.5.1-.2.1-.4.1-.7 0-.3 0-.5.1-.6.1-.4.3-.7.5-1 .2-.3.3-.6.3-1 .2-.4.3-.7.3-1.1 0-.4.1-.7.3-1 .5-.5.7-1 .7-1.8v-.5c.2-.4.4-.7.8-.9.4-.2.6-.5.8-.8.6-.3 1.1-.4 1.5-.5l1.4-.1c1.2 0 2.3.1 3.4.2s2.2.2 3.4.2h.8s.4 0 .7-.1zm-21.4 38.6c0-.1 0-.2-.1-.2h-.4c0 .1 0 .1.2.1h.3v.1zm1.9 4.6l-.5-.3c-.2-.1-.4-.2-.6-.2-.2 0-.2.1-.2.2 0 .3.1.4.3.5.2.1.4.2.5.2.3-.1.4-.2.5-.4zm2.2-7.6h-.6c-.2 0-.3.1-.3.2 0 .2.1.3.3.4.2.1.5.2.8.3.3.1.7.2 1 .2.3.1.6.1.8.1.2 0 .4-.1.6-.3.2-.2.3-.4.3-.6 0-.1-.1-.1-.2-.1s-.2 0-.3-.1c-.2.1-.4.1-.6.1h-.6c-.4 0-.8-.1-1.2-.2zm2.1 4.2c0-.2-.1-.2-.3-.2h-.4c0 .1-.1.1-.2.1-.1-.1-.2 0-.2.1s0 .1.1.2c.1-.1 0-.1 0-.1 0 .1.1.2.2.2l-.1.1c0 .1.1.2.2.2s.3 0 .5-.1c.1-.1.2-.3.2-.5zm3.3-6.6c-.3-.3-.6-.4-.9-.4-.3 0-.5.1-.8.2-.3.1-.6.2-.8.2 0 .2.1.3.4.4.3.1.6.2 1 .2.3 0 .6 0 .8-.1.3 0 .4-.2.4-.4v-.1zm-2.3 9.2h-.2c.1 0 .1.1.2 0zm1.9-14c-.1-.1-.2-.1-.3-.1-.2 0-.3 0-.4-.1-.1.1-.2.1-.4.1s-.3.1-.4.3c.2.2.6.3 1.1.3h1.2c-.3-.2-.6-.4-.8-.5zm-.4 11.5c-.1 0-.2 0-.2-.1s-.1-.1-.2-.1h-.1v-.2h-.5c-.1 0-.2.1-.2.2.1.1.2.1.2.1l.2.2h.5c.2.1.3 0 .3-.1zm3.5-22.1c-.2-.1-.4-.2-.5-.2-.2 0-.3.1-.4.2 0 .2.2.2.5.2h.6000000000000001v-.1l-.1-.1h-.1zm.1 7.4v-.3s-.1-.1-.2-.1h-.6c0 .1 0 .2-.1.2s-.1.1-.1.2c0 .2.1.2.3.2.1 0 .2 0 .3-.1.2 0 .3-.1.4-.1zm.4-10c-.1-.2-.2-.2-.3-.3-.1 0-.3-.1-.5-.2-.1.1-.2.2-.3.2-.1 0-.2.1-.2.2 0 .3.1.4.2.4.2 0 .4.1.6.2.1-.1.2-.2.3-.2.2-.1.2-.1.2-.3zm-.3 12.8v-.2c0-.1-.1-.2-.3-.2h-.4l-.2.2c-.1.1-.1.1-.1.2l.2.2c.3-.1.6-.1.8-.2zm.7 6.3c0-.2-.1-.3-.3-.3h-.2c-.2 0-.2.1-.2.2v.2h.5c.1.1.1 0 .2-.1zm5.9-19.8c-.1-.1-.3-.2-.5-.2-.6 0-1 .2-1.1.5-.2.3-.3.6-.4 1v.1c0 .2 0 .3-.1.4l-.2.3c0 .6-.2 1.1-.5 1.3-.3.3-.5.7-.5 1.3v1c-.1.3-.2.5-.3.7-.1.2-.2.4-.3.7v.3c0 .5-.1.9-.3 1.2-.2.3-.4.7-.5 1.1v.3c0 .5-.1.9-.3 1.3-.2.4-.4.7-.5 1.1-.1.2-.2.5-.3.8l-.3.9c-.1.4-.2.7-.2 1.1 0 .3.1.6.4.8.3.2.5.4.6.6h1.3c.9 0 1.7.1 2.4.2s1.6.2 2.4.2h.8c.3 0 .5-.1.8-.2.2-.2.3-.3.6-.3.2-.1.5-.1.7-.1.2 0 .4-.1.6-.2.2-.1.3-.3.3-.5 0-.3-.1-.7-.2-1.3-.2-.6-.3-1.2-.6-1.9-.2-.7-.4-1.3-.6-1.9-.2-.6-.4-1-.5-1.2 0-.6-.1-1-.3-1.4s-.4-.8-.4-1.3c-.3-.4-.5-.9-.5-1.5s-.2-1-.6-1.3v-1c0-.3.1-.5.2-.7.1-.2.3-.3.4-.3.1-.1.3-.2.4-.2.1-.1.2-.2.2-.3-.3 0-.5.1-.6.2l-.6.3c-.5-.1-.7-.4-.6-.8-.1-.4-.2-.8-.3-1.1zm-3-4.3c0-.1-.1-.2-.2-.2h-.6c0 .1-.1.2-.2.2-.2.1-.2.1-.2.2s.1.1.2.1h.2c.4 0 .6-.1.8-.3zm-.1 4c0-.1-.1-.2-.2-.2-.2 0-.3.1-.3.2 0 .2 0 .3.1.4.1 0 .3-.2.4-.4zm1.9-7.3c-.3-.3-.5-.4-.7-.4-.1 0-.2 0-.4.1s-.3.1-.4.2c0 .2.1.3.3.4h.5c.4-.1.6-.2.7-.3zm2.2 5.5c-.1-.3-.3-.4-.5-.5-.2-.1-.5-.1-.8-.1h-1.1c-.3.1-.5.2-.7.2-.2.1-.3.4-.3.9h.4c.4 0 .7-.1 1-.2.3-.2.6-.2 1-.2s.6.1.7.2c.1.1.2.3.3.5l.2.5c.1.1.3.2.6.2.1 0 .3 0 .5-.1.2 0 .3-.1.3-.2 0-.5-.2-.8-.6-.8-.5 0-.8-.2-1-.4zm-2.7 23.8c0-.1-.1-.2-.2-.2-.3 0-.4.1-.4.2s0 .1.1.2c.3 0 .4 0 .5-.2zm3.7-28.1c-.1-.1-.1-.1-.2-.1s-.1 0-.2-.1h-.5c-.3 0-.4.1-.4.2 0 .2-.1.3-.3.4.1.2.2.3.5.3h.7c.1-.1.2-.2.2-.3.1-.1.1-.2.2-.4zm2.1 2.4c-.2-.1-.3-.2-.5-.2l-.6-.1c-.1 0-.2 0-.3.1-.1.1-.2.2-.2.3 0 .1 0 .1.1.2h.8c.5 0 .7-.1.7-.3zm.5-3c0-.3-.1-.4-.2-.4h-.3c-.3 0-.5.1-.7.2l-.5.5c0 .1.3.2.6.2h.3c.1 0 .2 0 .3-.1h.1c.1 0 .2 0 .2-.1s.1-.2.2-.3zm.2 27.5c-.1-.1-.2-.2-.4-.2-.1 0-.2 0-.4.1s-.3.1-.4.1h-.2c-.4.1-.5.2-.5.3.4.4.8.5 1.4.5.3 0 .4-.1.4-.3v-.5zm.3-22.3c-.1-.2-.3-.2-.5-.2h-.7c-.1 0-.2.1-.2.2 0 .2.1.2.2.3h.4c.1-.1.4-.2.8-.3zm.7 4.2c-.1-.1-.2-.2-.3-.2h-.7c0 .1 0 .1-.1.1s-.1 0-.1.1v.1h.7c.3.1.5 0 .5-.1zm-.1 9.2c-.1-.1-.2-.2-.3-.2-.2 0-.3.1-.3.2l.2.2c0-.1.2-.1.4-.2zm.4 7.7c-.1 0-.2 0-.2-.1 0 0-.1-.1-.2-.1l-.2.2c0 .2 0 .2.2.2s.3 0 .3-.2zm8.6 1.3c-.2-.3-.4-.4-.8-.4-.5 0-.9.1-1.4.3-.5.2-1 .3-1.6.3-.6 0-1-.1-1.4-.2-.4-.2-.9-.2-1.4-.2-.3 0-.6.1-.9.2l-.1-.2c-.1.1-.1.1-.1.2 0 .4.3.5.8.5h.3c.4.2.7.2.9.2.4 0 .8-.1 1.2-.2.4-.1.8-.2 1.2-.2.2 0 .5.1.9.2.2.1.4.1.5.2.3-.1.7-.2 1.1-.2.4-.1.7-.2.8-.5zm-5.8-2.8h-1.2v.1c0 .1 0 .2-.1.2s-.1.1-.1.3c.2.2.4.2.8.2.2 0 .4-.1.6-.2v-.4c.1-.1.1-.1 0-.2zm-.5-2.6h-.5v.1c0 .1 0 .2.1.2h.3v-.1l.1-.2zm3.2 1.3c-.2-.1-.3-.1-.4-.2h-.4c-.1 0-.4.1-.8.2v.1c0 .1 0 .1-.1 0-.1 0-.1 0-.1.1s.1.2.3.2c.2.1.3.1.5.1h.6c.3-.1.4-.2.4-.5zm-.4-4.7c0-.1-.1-.2-.4-.2-.3 0-.5.1-.5.2v.30000000000000004c.2-.1.3-.1.5 0 .3 0 .4 0 .4-.3zm0-2.5c0-.1-.1-.2-.2-.2h-.4v.1c0 .1 0 .2.1.2h.2c.2-.1.2-.1.3-.1zm-.2 9.7c0-.2-.1-.2-.2-.2.1.1.1.2.2.2zm1.7 7c-.1-.1-.1-.1-.1-.2v-.1c-.2 0-.2.1-.2.2v.1c0 .1 0 .1.2.1 0 0 .1 0 0-.1h.1zm.7-7.8l-.1-.1c-.1.1-.1.1-.1.2l.2-.1zm3.3 7.4c-.1-.2-.4-.3-.9-.3v.30000000000000004c0 .1.1.2.2.2.1.1.2.1.3.1l.4-.3zM109 7.3c.6 0 1.1.1 1.7.2.6.1 1.1.2 1.7.2.4 0 .8 0 1.2-.1l1.2-.1c.3 0 .7.1 1.2.2.3-.1.6-.2.8-.2h.5c.3 0 .6 0 .9-.1.3 0 .6-.1 1-.1s.8 0 1.1.1.6.1.9.1c.4 0 .7 0 1-.1l.9-.1c.3 0 .5 0 .7.1.2.1.4.1.7.1.7 0 1.3 0 1.9-.2.6-.1 1.2-.2 1.9-.2h.5c.2.2.4.3.7.3.3 0 .6.1 1 .1.3 0 .6.1.8.2.3.1.4.3.5.6.2.2.2.5.2.8-.1.3 0 .6.2.8v1.8c0 .2.1.5.2.8.1.3.2.8.2 1.3 0 .4 0 .8-.1 1.2-.1.4-.1.8-.1 1.2 0 .3 0 .6.1.9.1.3.2.5.4.8-.2.2-.4.4-.6.8-.2.4-.3.6-.4.7-.4.3-.7.5-1 .6-.3.2-.7.2-1.4.2-.4 0-.8-.1-1.1-.2l-.9.2c-.4.1-.7.1-1 .1-.5 0-.9-.1-1.2-.3-.4-.2-.7-.3-1-.3-2 0-3 1.1-3 3.3 0 .2.1.4.2.6.1.2.2.4.2.7 0 .2-.1.4-.2.6-.1.2-.2.4-.2.6 0 .3.1.6.2.8s.2.5.2.7c0 .3 0 .6-.1.9-.1.4-.1.7-.1.9 0 .3.1.6.2.8.2.3.2.6.2.9 0 .3 0 .5-.1.8-.1.3-.1.5-.1.8 0 .4 0 .8.1 1.3.1.4.1.9.1 1.3 0 .2 0 .3-.1.5s-.1.3-.1.4c0 .1 0 .2.1.4s.1.4.1.6c0 .3 0 .5-.1.7-.1.2-.1.4-.1.6 0 .3 0 .5.1.8.1.3.1.5.1.8 0 .2 0 .4-.1.5v2.2c-.1.1-.2.3-.2.6s0 .5.1.8c.1.3.1.5.1.8 0 .2-.1.5-.2.8.1.3.2.6.2 1s0 .8-.1 1c-.1.3-.1.6-.1.9 0 .5 0 .9.1 1.3s.1.9.1 1.3-.1.6-.2.8-.2.4-.2.8 0 .8.1 1c.1.3.1.6.1.9 0 .4 0 .7-.1 1-.1.3-.1.6-.1 1s0 .5.1.7c0 .2-.1.3-.3.3-.3.3-.6.5-.8.8-.2.3-.5.4-.9.4-.3 0-.4 0-.5-.1h-2.7c-1.4 0-2.7 0-4.1-.1-1.3-.1-2.7-.1-4-.1-.9-.6-1.5-1.3-1.8-2 .1-.5.2-1 .2-1.5l.1-1.6c0-2.3-.1-4.4-.2-6.4-.2-2-.2-4.1-.2-6.2 0-.5 0-.9.1-1.3l.1-1.3c0-.3 0-.5-.1-.8-.1-.3-.1-.6-.1-.9 0-.4 0-.8.1-1.1l.1-1.1v-.3c0-.1 0-.3-.1-.4.1-.3.2-.6.2-.8 0-.2 0-.3-.1-.5s-.1-.4-.1-.6c0-.3 0-.5.1-.8l.1-.8c0-.2-.1-.5-.2-.8.3 0 .4-.3.5-.8 0-.6.1-1.1.1-1.5v-1.7000000000000002c.2-.3.3-.6.3-.9 0-.6-.1-1.3-.4-2.1-.3-.8-.8-1.2-1.6-1.2h-7.1c-.5 0-1-.1-1.3-.2-.4-.1-.6-.3-.6-.5-.2-.6-.3-1.2-.4-2.1-.1-.8-.2-1.5-.1-2.2 0-.6.1-1.1.2-1.6-.1-.2-.2-.5-.2-.8v-1.6c0-.2 0-.3-.1-.5s-.1-.3-.1-.5c0-.4.1-.6.3-.9.2-.2.3-.5.3-.9v-.5c.2-.4.5-.7.9-.8-.1-.1.3-.2.9-.2h2.1c.2 0 .3 0 .5-.1h.4c.3 0 .6 0 .8-.2.3-.1.5-.2.8-.2.3 0 .5 0 .8.1.3.1.5.1.8.1.6 0 1.1 0 1.7-.2.6-.1 1.1-.2 1.6-.2.5.3 1 .4 1.5.6zm-5.8 10.9c-.1 0-.2-.1-.4-.1s-.3.1-.3.2.1.2.2.2c.4 0 .5-.1.5-.3zm4.7.2c-.1-.2-.3-.3-.6-.3s-.6 0-.8-.1c-.3.1-.4.3-.4.8 0 .2.2.2.5.2h.5c.2 0 .4-.1.5-.2.1-.2.2-.3.3-.4zm0-2.6c.1-.1.1-.1.1-.2s-.1-.1-.2-.1h-.3c-.2 0-.2 0-.2-.1-.1.1-.2.1-.3.1-.1 0-.2.1-.2.2s.1.2.2.2c.4.1.7 0 .9-.1zm2.4 2.1l-.3-.3c-.1-.1-.3-.2-.6-.2-.1 0-.2.1-.4.3-.2.2-.3.3-.3.4.1.1.1.1.1.2.2.2.4.2.6.2h.6c.2-.1.3-.3.3-.6zm-.6 2.6c-.1-.1-.2-.2-.5-.2v.1c0 .1.1.2.4.2l.1-.1zm3.2-7.1c-.1 0-.1-.1-.2 0-.1 0-.1 0-.1-.1-.4 0-.8.1-1.1.2-.3.1-.6.2-1 .3.1.2.4.3.8.3s.8 0 1.1-.1c.4 0 .5-.2.5-.5v-.1zm2 8.4c0-.2-.1-.3-.4-.4-.3-.1-.5-.2-.6-.2-.3 0-.5.1-.6.3-.2.2-.4.3-.7.3-.5 0-.9-.2-1.1-.5-.1.1-.3.1-.5 0-.2 0-.3 0-.3.2.1.1.2.2.2.3 0 .2.1.3.3.3h.6c.3 0 .4 0 .5.1s.2.1.5.1c.4 0 .7-.1 1.1-.2.4.1.7-.1 1-.3zm-2.6 3l-.9.3c-.4.1-.6.3-.7.7.2.1.5.2.8.2s.6-.1.8-.2.3-.4.3-.6v-.2h-.2c-.1-.1-.1-.1-.1-.2zm-.2-7.2c.1 0 .1 0 .1-.2 0-.1-.1-.2-.2-.2h-.4c0 .3.1.4.3.4v-.1l.2.1zm2.3 1.4c-.3 0-.6 0-.9-.1-.3-.1-.5-.1-.8-.1-.2 0-.4 0-.6.1-.3.1-.4.2-.4.5s.1.4.4.4l.8.1c.3-.1.6-.1 1.1-.1.5.1.9 0 1.3-.1v-.1h.2s.1-.1.1-.2v-.30000000000000004c-.3 0-.7-.1-1.2-.1zm.9 14.2c.2-.1.2-.1.2-.2s-.1-.1-.2-.1h-1.2c-.2 0-.3 0-.5.1s-.3.1-.3.2.1.2.2.2h.3c.4 0 .6-.1.8-.2h.7zm-.5-4.7c-.1-.2-.3-.2-.5-.2-.1 0-.2 0-.4.1s-.3.1-.4.2c0 .1 0 .1.1.1s.1.1.1.2h.7c.3-.1.4-.2.4-.4zm-.2 18.8c-.1-.1-.2-.2-.3-.2-.2-.1-.2-.1-.1-.1-.2 0-.4.1-.6.3.1 0 .2 0 .3.1s.2.1.3.1c0 .1.2 0 .4-.2zm.1-9.6l-.2-.2c-.1 0-.2 0-.2.1l-.2.2c0 .1 0 .1.2.1 0 0 .1 0 .1.1h.1c0-.1.1-.1.2-.1v-.2zm2.7-20.7c-.1 0-.3-.1-.5-.1-.5 0-.8.2-.8.6.1.1.2.2.3.2.2.2.3.2.5.2.3 0 .4-.1.4-.2 0-.2.1-.3.2-.5-.1 0-.1 0-.1-.2.1-.1.1-.2 0-.2zm.6-2c0-.1-.1-.2-.2-.2h-.5c-.2 0-.3.1-.3.3 0 .2.2.3.5.3.2.1.4-.1.5-.4zm-.4 29c.1 0 .1-.1.1-.2s-.1-.2-.2-.2h-.5c-.1.1-.1.3-.1.5h.5c.2 0 .2-.1.2-.1zm.2-10l-.1-.2h-.5c0 .2.1.3.2.3.2.1.3 0 .4-.1zm-.2 12.6c-.1 0-.1 0 0-.1 0-.1 0-.1-.1-.1s-.2.1-.2.2v.3h.4v-.30000000000000004zm.4-35.4c0-.2-.1-.3-.2-.3s-.1.1-.1.2c0 .2.1.2.2.2 0-.1 0-.1.1-.1zm.6 8.7c-.1-.1-.1-.2-.2-.2s-.2 0-.2.1v.2c0 .1 0 .1.1.1.2 0 .3 0 .3-.2zm2.9-3.4v-.2c0-.1-.1-.2-.2-.2h-.4c-.1 0-.2 0-.2-.1-.3.2-.5.4-.5.5l.1.2c.1-.1.3-.2.5-.2s.5.1.7 0zM152.3 7.3c.6 0 1.1.1 1.7.2.6.1 1.1.2 1.7.2.4 0 .8 0 1.2-.1l1.2-.1c.3 0 .7.1 1.2.2.3-.1.6-.2.8-.2h.5c.3 0 .6 0 .9-.1.3 0 .6-.1 1-.1s.8 0 1.1.1.6.1.9.1c.4 0 .7 0 1-.1l.9-.1c.3 0 .5 0 .7.1.2.1.4.1.7.1.7 0 1.3 0 1.9-.2.6-.1 1.2-.2 1.9-.2h.5c.2.2.4.3.7.3.3 0 .6.1 1 .1.3 0 .6.1.8.2.3.1.4.3.5.6.2.2.2.5.2.8-.1.3 0 .6.2.8v1.8c0 .2.1.5.2.8.1.3.2.8.2 1.3 0 .4 0 .8-.1 1.2-.1.4-.1.8-.1 1.2 0 .3 0 .6.1.9.1.3.2.5.4.8-.2.2-.4.4-.6.8-.2.4-.3.6-.4.7-.4.3-.7.5-1 .6-.3.2-.7.2-1.4.2-.4 0-.8-.1-1.1-.2l-.9.2c-.4.1-.7.1-1 .1-.5 0-.9-.1-1.2-.3-.4-.2-.7-.3-1-.3-2 0-3 1.1-3 3.3 0 .2.1.4.2.6.1.2.2.4.2.7 0 .2-.1.4-.2.6-.1.2-.2.4-.2.6 0 .3.1.6.2.8s.2.5.2.7c0 .3 0 .6-.1.9-.1.4-.1.7-.1.9 0 .3.1.6.2.8.2.3.2.6.2.9 0 .3 0 .5-.1.8-.1.3-.1.5-.1.8 0 .4 0 .8.1 1.3.1.4.1.9.1 1.3 0 .2 0 .3-.1.5s-.1.3-.1.4c0 .1 0 .2.1.4s.1.4.1.6c0 .3 0 .5-.1.7-.1.2-.1.4-.1.6 0 .3 0 .5.1.8.1.3.1.5.1.8 0 .2 0 .4-.1.5v2.2c-.1.1-.2.3-.2.6s0 .5.1.8c.1.3.1.5.1.8 0 .2-.1.5-.2.8.1.3.2.6.2 1s0 .8-.1 1c-.1.3-.1.6-.1.9 0 .5 0 .9.1 1.3s.1.9.1 1.3-.1.6-.2.8-.2.4-.2.8 0 .8.1 1c.1.3.1.6.1.9 0 .4 0 .7-.1 1-.1.3-.1.6-.1 1s0 .5.1.7c0 .2-.1.3-.3.3-.3.3-.6.5-.8.8-.2.3-.5.4-.9.4-.3 0-.4 0-.5-.1h-2.7c-1.4 0-2.7 0-4.1-.1-1.3-.1-2.7-.1-4-.1-.9-.6-1.5-1.3-1.8-2 .1-.5.2-1 .2-1.5l.1-1.6c0-2.3-.1-4.4-.2-6.4-.2-2-.2-4.1-.2-6.2 0-.5 0-.9.1-1.3l.1-1.3c0-.3 0-.5-.1-.8-.1-.3-.1-.6-.1-.9 0-.4 0-.8.1-1.1l.1-1.1v-.3c0-.1 0-.3-.1-.4.1-.3.2-.6.2-.8 0-.2 0-.3-.1-.5s-.1-.4-.1-.6c0-.3 0-.5.1-.8l.1-.8c0-.2-.1-.5-.2-.8.3 0 .4-.3.5-.8 0-.6.1-1.1.1-1.5v-1.7000000000000002c.2-.3.3-.6.3-.9 0-.6-.1-1.3-.4-2.1-.3-.8-.8-1.2-1.6-1.2h-7.1c-.5 0-1-.1-1.3-.2-.4-.1-.6-.3-.6-.5-.2-.6-.3-1.2-.4-2.1-.1-.8-.2-1.5-.1-2.2 0-.6.1-1.1.2-1.6-.1-.2-.2-.5-.2-.8v-1.6c0-.2 0-.3-.1-.5s-.1-.3-.1-.5c0-.4.1-.6.3-.9.2-.2.3-.5.3-.9v-.5c.2-.4.5-.7.9-.8.4-.1.9-.2 1.4-.2h2.1c.2 0 .3 0 .5-.1h.4c.3 0 .6 0 .8-.2.3-.1.5-.2.8-.2.3 0 .5 0 .8.1.3.1.5.1.8.1.6 0 1.1 0 1.7-.2.6-.1 1.1-.2 1.6-.2.1.3.6.4 1 .6zm-5.7 10.9c-.1 0-.2-.1-.4-.1s-.3.1-.3.2.1.2.2.2c.3 0 .5-.1.5-.3zm4.6.2c-.1-.2-.3-.3-.6-.3s-.6 0-.8-.1c-.3.1-.4.3-.4.8 0 .2.2.2.5.2h.5c.2 0 .4-.1.5-.2.1-.2.2-.3.3-.4zm.1-2.6c.1-.1.1-.1.1-.2s-.1-.1-.2-.1h-.3c-.2 0-.2 0-.2-.1-.1.1-.2.1-.3.1-.1 0-.2.1-.2.2s.1.2.2.2c.4.1.7 0 .9-.1zm2.3 2.1l-.3-.3c-.1-.1-.3-.2-.6-.2-.1 0-.2.1-.4.3-.2.2-.3.3-.3.4.1.1.1.1.1.2.2.2.4.2.6.2h.6c.3-.1.3-.3.3-.6zm-.6 2.6c-.1-.1-.2-.2-.5-.2v.1c0 .1.1.2.4.2l.1-.1zm3.2-7.1c-.1 0-.1-.1-.2 0-.1 0-.1 0-.1-.1-.4 0-.8.1-1.1.2-.3.1-.6.2-1 .3.1.2.4.3.8.3s.8 0 1.1-.1c.4 0 .5-.2.5-.5v-.1zm2 8.4c0-.2-.1-.3-.4-.4-.3-.1-.5-.2-.6-.2-.3 0-.5.1-.6.3-.2.2-.4.3-.7.3-.5 0-.9-.2-1.1-.5-.1.1-.3.1-.5 0-.2 0-.3 0-.3.2.1.1.2.2.2.3 0 .2.1.3.3.3h.6c.3 0 .4 0 .5.1s.2.1.5.1c.4 0 .7-.1 1.1-.2.4.1.8-.1 1-.3zm-2.6 3l-.9.3c-.4.1-.6.3-.7.7.2.1.5.2.8.2s.6-.1.8-.2.3-.4.3-.6v-.2h-.2l-.1-.2zm-.1-7.2c.1 0 .1 0 .1-.2 0-.1-.1-.2-.2-.2h-.4c0 .3.1.4.3.4v-.1l.2.1zm2.3 1.4c-.3 0-.6 0-.9-.1-.3-.1-.5-.1-.8-.1-.2 0-.4 0-.6.1-.3.1-.4.2-.4.5s.1.4.4.4l.8.1c.3-.1.6-.1 1.1-.1.5.1.9 0 1.3-.1v-.1h.2s.1-.1.1-.2v-.30000000000000004c-.4 0-.7-.1-1.2-.1zm.9 14.2c.2-.1.2-.1.2-.2s-.1-.1-.2-.1h-1.2c-.2 0-.3 0-.5.1s-.3.1-.3.2.1.2.2.2h.3c.4 0 .6-.1.8-.2h.7zm-.6-4.7c-.1-.2-.3-.2-.5-.2-.1 0-.2 0-.4.1s-.3.1-.4.2c0 .1 0 .1.1.1s.1.1.1.2h.7c.3-.1.4-.2.4-.4zm-.2 18.8c-.1-.1-.2-.2-.3-.2-.2-.1-.2-.1-.1-.1-.2 0-.4.1-.6.3.1 0 .2 0 .3.1s.2.1.3.1c.1.1.3 0 .4-.2zm.2-9.6l-.2-.2c-.1 0-.2 0-.2.1l-.2.2c0 .1 0 .1.2.1 0 0 .1 0 .1.1h.1c0-.1.1-.1.2-.1v-.2zm2.6-20.7c-.1 0-.3-.1-.5-.1-.5 0-.8.2-.8.6.1.1.2.2.3.2.2.2.3.2.5.2.3 0 .4-.1.4-.2 0-.2.1-.3.2-.5-.1 0-.1 0-.1-.2.1-.1.1-.2 0-.2zm.6-2c0-.1-.1-.2-.2-.2h-.5c-.2 0-.3.1-.3.3 0 .2.2.3.5.3.3.1.4-.1.5-.4zm-.3 29c.1 0 .1-.1.1-.2s-.1-.2-.2-.2h-.5c-.1.1-.1.3-.1.5h.5c.1 0 .2-.1.2-.1zm.1-10l-.1-.2h-.4c0 .2.1.3.2.3.1.1.2 0 .3-.1zm-.1 12.6c-.1 0-.1 0 0-.1 0-.1 0-.1-.1-.1s-.2.1-.2.2v.3h.4v-.30000000000000004zm.3-35.4c0-.2-.1-.3-.2-.3s-.1.1-.1.2c0 .2.1.2.2.2 0-.1.1-.1.1-.1zm.6 8.7c-.1-.1-.1-.2-.2-.2s-.2 0-.2.1v.2c0 .1 0 .1.1.1.2 0 .3 0 .3-.2zm2.9-3.4v-.2c0-.1-.1-.2-.2-.2h-.4c-.1 0-.2 0-.2-.1-.3.2-.5.4-.5.5l.1.2c.1-.1.3-.2.5-.2s.6.1.7 0zM186.2 7c.4.1.7.1 1 .1h3.8c1.4 0 2.6.1 3.7.2.2-.1.3-.2.5-.2h.7c1.1 0 2.1 0 3.2.1 1 .1 2.1.1 3.3.1h2.4s1.6 0 2.3-.1c.2.1.3.1.5.1h3.3c.6 0 1.2.1 2 .4.8.3 1.3.8 1.6 1.6-.1.3-.2.5-.3.7-.1.2-.2.5-.2.8 0 .2.1.4.2.6.1.2.2.4.2.6 0 .3-.1.5-.2.8-.1.3-.2.5-.2.8s0 .6.1.8c.1.3.1.5.1.8 0 .4 0 .8-.1 1.1-.1.4-.1.7-.1 1.1 0 .2.1.5.2.9-.3.3-.6.5-.8.8-.2.3-.6.4-1.2.4-.5 0-1 0-1.5-.1s-.9-.1-1.3-.1c-.6 0-1.1.1-1.6.2s-1.1.2-1.7.2c-.7 0-1.3 0-2-.1s-1.3-.1-1.8-.2c-.2.1-.5.1-.8.1h-1.6c-.7 0-1.4.2-2 .5s-.9.9-.9 1.9v1.4c0 .4-.1.6-.2.8.1.3.2.5.2.6v.5c0 .5.1.9.3 1.1.2.3.5.4.8.5.3.1.6.2.8.2h.5c.3.1.5.1.8.1h.8c.4 0 .8 0 1.2-.1.4 0 .9-.1 1.4-.1h.6c.2 0 .4 0 .5.1 1.2-.2 2.5-.2 3.8-.2h1.6l1.6.1h.2c.1 0 .1 0 .1.1v.1h.1c.3.3.5.6.7 1 .2.4.3.8.3 1.1 0 .4-.1.6-.2.8.1.3.2.6.2 1v2s0 .6-.1.8c.1.2.1.4.1.6v.6c0 .5 0 1.1-.1 1.8s-.3 1.1-.6 1.2c-.2.3-.4.4-.7.4-.3 0-.6.1-.8.3h-.4c-.3 0-.5 0-.6.1-.2.1-.4.1-.6.1-.6 0-1.2 0-1.8-.1-.6-.1-1.1-.1-1.7-.1-.3 0-.6 0-1 .1s-.6.1-1 .1c-.5 0-.9-.1-1.2-.2-.4-.2-.8-.2-1.4-.2h-1.3c-.5 0-1 .1-1.4.2-.5.1-.9.3-1.2.5-.3.2-.5.5-.5.8v.4c0 .3-.1.5-.2.7-.2.2-.2.4-.2.6 0 .1.1.3.2.5s.2.4.2.7c0 .3 0 .5-.1.7-.1.2-.1.4-.1.7 0 .4.2.8.6 1.2.4.4.8.6 1.3.6.4 0 .8 0 1.3-.2.5-.1 1-.2 1.4-.2.4 0 .8 0 1.3.1l1.2.2.1-.1h2.8c.4-.1.8-.2 1.2-.2h4.1s.4 0 .7-.1c.4.2.8.5 1.2 1.2.4.6.6 1.2.6 1.6 0 .3-.1.5-.2.7s-.2.5-.2.7c0 .2 0 .3.1.6s.1.5.1.7c0 .3 0 .5-.1.8-.1.3-.1.5-.1.8 0 .2 0 .4.1.5s.1.3.1.5c0 .4 0 .7-.1 1s-.1.6-.1.9c.1.1.1.3.1.5 0 .3-.1.6-.3.8-.2.3-.4.5-.7.6-.3.2-.5.3-.8.4-.3.1-.5.2-.6.2-.7 0-1.4 0-2.1-.1-.8-.1-1.5-.1-2.2-.1h-2.8000000000000003c-.2 0-.3-.1-.4-.2-.2.1-.5.2-.9.2h-2.9000000000000004c-.9 0-1.7-.1-2.5-.2-.2.1-.4.2-.6.2h-.3c-.4 0-.6.1-.7.2-.1.2-.3.2-.5.2-.3 0-.5 0-.7-.1-.2-.1-.4-.1-.7-.1h-.2c-.2-.1-.5-.1-.8-.1-.5 0-1 .1-1.4.2-.4.1-.8.2-1.3.2-.3 0-.6-.1-1-.2h-.2c-.2 0-.3 0-.4-.1-.1-.1-.2-.1-.3-.1-.3 0-.5 0-.7.1-.2.1-.4.1-.6.1-.5 0-.9-.1-1.4-.2-.5-.1-.9-.2-1.4-.2-.4 0-.6 0-.8.1-.3-.2-.5-.3-.6-.5l-.6-.6h-.1c-.1 0-.2-.3-.2-.8-.1-.5-.1-1.1-.1-1.8v-3.4c0-.3.1-.7 0-1.1v-1.2c-.1-.2-.2-.4-.2-.7 0-.3 0-.5.2-.8.1-.3.2-.6.2-1s-.1-.6-.2-.8v-.2c0-.4 0-.7-.1-1-.1-.3-.1-.7-.1-1 0-.4.1-.7.2-1.1-.1-.3-.1-.6-.1-.9v-.9c0-.2 0-.4.1-.5 0-.2.1-.3.1-.4-.1-.2-.1-.3-.1-.5-.1-.2-.1-.4-.1-.7l.1-.8v-.5c-.1-.3-.2-.5-.2-.6v-.6c0-.5 0-1 .1-1.5l.1-1.5c.3-.4.4-.7.4-1 0-.3 0-.5-.1-.7-.1-.2-.1-.4-.1-.7 0-.4 0-.6.2-.8-.1-.1-.2-.3-.2-.5s0-.4.1-.6l.1-.6c0-.2 0-.3-.1-.5s-.1-.3-.1-.5c0-.3 0-.5.1-.7.1-.2.1-.4.1-.7 0-.2 0-.3-.1-.6-.1-.2-.1-.5-.1-.7 0-.3 0-.6.1-.8 0-.2.1-.4.1-.7 0-.3 0-.5-.1-.7-.1-.2-.1-.5-.1-.7 0-.2 0-.4.2-.7-.1-.1-.2-.4-.2-.8s0-.7.1-.9c-.1-.3-.1-.5-.1-.8v-1.8c0-.3 0-.5.1-.8l-.3-1.3c-.1-.5-.1-1-.1-1.5 0-.3 0-.6.1-.8.1-.3.1-.5.1-.7 0-.3-.1-.5-.2-.7-.1-.2-.2-.4-.2-.6 0-.7.3-1.3 1-1.9.7-.6 1.3-.9 2-.9h.6c.2.2.4.2.6.2zm1.6 28.7c0-.2-.2-.2-.6-.2-.2 0-.2.1-.2.2s0 .1.2.2c.1 0 .2-.1.3 0l.3-.2zm-.5 4.6h-.2c0 .1 0 .2.1.2l.1-.2zm3.1 6.6l-.2-.2h-.1c-.2 0-.2-.1-.2-.2-.1.1-.2.1-.3 0-.1 0-.2 0-.3.1h-.3c-.3 0-.5 0-.6.1-.2.1-.4.1-.6.1h-.2c-.1.1-.1.1-.2.1s-.1.1-.1.2 0 .1.1.1h.2c.2 0 .3-.1.5-.2s.4-.2.6-.2c.4 0 .7.1.9.4.3.3.5.4.8.4.2 0 .2-.2.2-.5v-.2zm-1.5 2.6c0-.2-.1-.2-.3-.2h-.4c-.1.1-.2.1-.2.2 0 .2 0 .3.2.3.1-.1.2-.1.4-.1.2.1.3 0 .3-.1v-.1zm3.9-6.6c-.1-.3-.2-.4-.5-.4h-.6c-.1 0-.2 0-.2-.1-.2.2-.4.2-.7.3h-1c-.3 0-.6.1-.8.2-.3.1-.4.3-.4.6s.2.5.6.5c.1 0 .3 0 .6-.1.4 0 .8-.1 1.2-.2.4-.1.8-.2 1.1-.3.4-.2.6-.3.7-.5zm-2.5-28.9c-.4-.4-.7-.5-.9-.5-.2 0-.3 0-.3.1v.2c0 .2.1.2.2.3.1 0 .2.1.3.2h.5c0-.2.1-.2.2-.3zm.4 17.3h-.2c-.1 0-.2 0-.2-.1 0 0-.1-.1-.2-.1-.1.1-.2.2-.3.2-.1 0-.2.1-.2.2 0 .3.2.4.6.4 0-.1.1-.2.2-.2.2-.1.3-.2.3-.4zm-.2-5.5c0-.2-.1-.2-.2-.2-.4 0-.5.1-.5.2s.2.2.5.2c.1 0 .2-.1.2-.2zm3.7 6.3c0-.1-.1-.2-.3-.2-.3 0-.5.1-.7.3-.2.2-.5.3-.7.4-.2 0-.5 0-1 .1-.4.1-.6.3-.6.6 0 .2.1.2.4.2.2 0 .3 0 .4-.1 0-.1.1-.1.2-.1h.2c.7-.2 1.5-.6 2.1-1.2zm-.9 6v-.2h-.8c-.3 0-.6.1-1 .2s-.6.2-.6.3c0 .3.2.4.5.4.4 0 .8-.1 1.1-.2.5-.2.7-.3.8-.5zm-.4 7.6c-.2 0-.6-.1-1.1-.1h-.5c-.2 0-.3.1-.4.2.3.3.8.5 1.4.5h.5s.2-.1.2-.3v-.2l-.1-.1c.1.1 0 .1 0 0zm.2-26.7c-.1-.2-.3-.3-.5-.3s-.4-.1-.5-.2h-.6c-.3 0-.5.1-.5.2l.2.2h.1l.6.2c.2.1.4.1.6.1.3 0 .5-.1.6-.2zm-1.3 5c-.1-.2-.3-.3-.5-.3-.1 0-.2.1-.3.2v.3s.1.1.4.1c.3 0 .4-.1.4-.3zm.2 26.9c0-.2-.1-.2-.4-.2-.3 0-.5.1-.5.3 0 .1.2.2.5.3 0-.1.1-.1.2-.1s.2 0 .2-.1v-.2zm.3-36.6c-.1-.3-.4-.4-.9-.4l-.2.2c0 .1 0 .1.1.1 0 0 .1 0 .1.1v.1c.2.1.4.2.5.3.1.2.3.2.5.2 0-.1 0-.1.1-.1s.1-.1.1-.2 0-.2-.1-.2-.1 0-.2-.1zm.3 34h-.2c-.1 0-.2 0-.2-.1 0 0-.1-.1-.2-.1s-.2 0-.3.1-.2.1-.2.2c0 .2.1.3.3.2h.6c0-.1.1-.2.2-.2v-.1zm0-21.9c-.1 0-.2-.1-.3-.2s-.2-.1-.3-.1l-.2.2-.2.2c0 .1 0 .2.1.3.1.2.2.3.3.3.1 0 .2 0 .3-.2.2-.1.3-.2.3-.5zm0 4c-.3-.3-.5-.4-.8-.4-.1.1-.1.2-.2.2s-.1.1-.1.2 0 .2.2.4c.1.2.2.2.4.2.1 0 .2 0 .3-.1.1 0 .2-.1.2-.2v-.30000000000000004zm3.3 8.9c0-.2-.1-.2-.2-.2h-.5c-.3.4-.6.6-1 .6s-.6.2-.8.5l-.5.2c-.2.1-.3.1-.3.2 0 .2 0 .3.2.3.2-.1.4-.1.6-.1.2 0 .4-.1.5-.3.3-.4.6-.6.9-.8.4-.2.8-.3 1.1-.4zm-1.8-11.1h-.4c-.3 0-.5.1-.7.4.1.1.1.2 0 .4s0 .3.1.4c.4-.1.7-.1.8-.2s.2-.5.2-1zm1.5 21.6c-.1-.3-.2-.4-.5-.4-.4 0-.8.1-1.2.3-.5.2-.7.5-.8.9.2 0 .3 0 .5.1s.3.1.5.1c.6 0 .9-.1 1.1-.3.1-.3.3-.5.4-.7zm-1.5-15.9c-.2-.1-.3-.1-.3-.2-.1-.1-.1-.1-.2-.1s-.2.1-.2.2c-.1.1-.1.2-.1.3.1.1.2.1.2.2.1.1.1.1.2.1s.1 0 .2-.1c.1-.2.2-.3.2-.4zm.3 11.2s-.2-.1-.5-.1c-.1.1-.2.2-.2.3s-.1.2-.2.3c.4.3.8.4 1.4.3.6 0 .9.1 1 .3.2-.2.3-.2.5-.2s.3-.1.3-.3c-.1-.3-.4-.5-.9-.5h-.8c-.3 0-.5 0-.6-.1zm1-27.5c-.3 0-.5-.2-.7-.3-.2-.2-.5-.2-.8-.2l-.1.2c0 .2.1.2.2.2.2 0 .3 0 .4.1.2 0 .4.1.5.2.1.2.3.3.4.4h.4c.2 0 .2 0 .2-.2 0-.1-.1-.2-.2-.3s-.2-.1-.3-.1zm-1 5.6c.1-.1.1-.1.2-.1l.1-.1s-.1-.1-.3-.1h-.3c-.1.1-.1.1-.2.1s-.1.1-.1.2 0 .1.1.1.2 0 .3-.1h.2zm1.3 13.4c-.1-.1-.2-.2-.4-.2h-.3l-.2.2c0 .3.1.4.3.4h.4c.2 0 .3-.1.3-.2s0-.2-.1-.2zm.8-9.3c-.1-.2-.3-.2-.5-.3-.2 0-.4-.1-.6-.2-.1.1-.1.2-.2.2s-.1.1-.2.2c0 .2.2.2.5.2h.5c.2-.1.3-.1.5-.1zm.8 2.4h-.6c-.1 0-.2 0-.3.1-.1.1-.2.1-.3.1h-.5c-.4 0-.6.1-.6.2v.5s.2.2.5.2c.2 0 .4-.1.5-.2.2-.1.4-.2.6-.2h.3c.2-.2.2-.3.2-.4v-.3zm-1-18.2c0-.1-.1-.2-.2-.2h-.4c0 .1 0 .1-.1.1s-.1.1-.1.1c0 .1 0 .2.2.2h.5c.2 0 .2 0 .2-.2zm.8 4.1l-.5-.3s-.3-.1-.5-.1-.4.1-.5.2c.1.1.2.2.3.4.1.2.3.2.6.2 0 0 .1 0 .2-.1l.4-.3zm-.6 26l-.2-.1h-.3c-.1 0-.2.1-.2.1 0 .1 0 .2.1.2 0 .1 0 .2.2.2l.2-.1c.1 0 .2-.1.2-.3zm1.8-8.3c0-.1-.1-.2-.4-.2-.4 0-.7.1-.8.4.1.1.1.1.2.1.2 0 .4-.1.5-.2l.5-.1zm.9 16.9h-1.3c-.1.1-.2.2-.3.2-.1 0-.2.1-.2.2s.1.2.2.2c.1.1.2.1.3.1.3 0 .5-.1.8-.2.3-.1.5-.2.5-.3v-.2zm-.4-14.6h-.2c-.3 0-.5.1-.6.2l.2.2c.1 0 .2 0 .3-.1.2 0 .3-.1.3-.3zm.6-18.7c0-.3-.1-.4-.2-.4s-.2.1-.3.2c-.2.1-.3.2-.4.3.1.1.2.2.3.2.1 0 .2 0 .3-.1s.2-.2.3-.2zm5.3 33.6c-.1 0-.2-.1-.4-.1h-.8v.1c0 .2.1.2.3.3.2 0 .3.1.4.2.2 0 .3-.1.3-.2l.1.1.1-.1v-.3zM240.6 7.5c.8.1 1.5.1 2.1.3.6.1 1.4.2 2.2.2.3.1.6.2 1 .2s.7.1 1 .2c.2.3.5.5 1.2.7.6.2 1.1.3 1.3.3.5.3 1 .7 1.6 1.1.5.4 1 .8 1.3 1.1 1 1 1.4 1.5 1.4 1.8.2.4.4.6.6.8.3.2.5.4.8.7.3 1 .6 2 1 2.9.4.9.6 1.8.6 2.6 0 .4 0 .7-.1 1.1-.1.4-.1.7-.1 1.1 0 .3 0 .6.1.9.1.3.1.6.1.9 0 .3 0 .5-.1.8-.1.3-.1.5-.1.8 0 .2 0 .3.1.5l.1.3c0 .3-.1.6-.3 1-.2.4-.3.7-.4 1v.2c0 .6-.1 1-.4 1.2-.3.3-.5.6-.6 1.1-.1.6-.3 1-.7 1.3-.4.3-.8.6-1.1 1-.3.6-.7 1.1-1.3 1.5s-1.1.7-1.7 1l-1.8.8c-.6.3-1.1.6-1.4 1-.1.1-.1.2-.1.4 0 .3.1.6.2 1s.3.8.5 1.2c.2.4.5.8.8 1.2.3.4.6.7 1 .9.2.4.3.7.4 1.1.1.4.3.7.6.9.3.2.5.4.6.7s.4.6.7.8c.2.1.3.2.4.4l.2.6c0 .2.1.4.2.6.1.2.3.3.5.3.2.3.4.4.6.5.3.1.4.4.5.8.6 1 1.1 1.8 1.7 2.4.6.6 1 1.2 1.4 1.8.2.4.3.7.4 1 .1.3.2.6.5.9.2.2.3.3.4.5.1.2.2.4.2.6 0 .4-.2.8-.7 1.1s-.8.6-1.1.8h-1.6c-1.3 0-2.5 0-3.7-.1s-2.5-.1-3.7-.1h-1c-.6 0-1.1 0-1.6-.1s-1-.1-1.5-.1c-.4-.1-.8-.3-1.2-.6-.4-.3-.7-.7-1-1-.3-.4-.5-.7-.7-1-.2-.3-.3-.6-.3-.7 0-.3-.1-.6-.2-.8s-.3-.4-.5-.6l-.5-.6s-.2-.5-.2-.8v-.3c-.3-.3-.5-.6-.8-.8-.3-.3-.4-.6-.4-1.1-.5-.5-.9-1-1.1-1.6-.2-.6-.6-1.2-1-1.6-.1-.3-.2-.5-.2-.7 0-.2-.1-.4-.3-.5-.1-.3-.2-.4-.3-.6-.1-.1-.2-.3-.2-.6-.2-.2-.3-.4-.3-.7-.1-.3-.3-.4-.6-.5-.1-.2-.2-.3-.4-.4-.2-.1-.3-.2-.4-.5 0-.1 0-.1.1-.2 0 0 .1-.1.1-.2 0-.2-.1-.2-.2-.2-.4 0-.6.1-.8.4-.2.3-.5.4-.9.4-.6 0-.9-.2-1-.5-.1-.3-.3-.5-.6-.5-.1 0-.2.1-.4.2.1.3.3.4.5.5.2.1.3.4.3 1 .2.2.4.2.8.2s.6 0 .7-.1c.3.2.4.4.4.8v.7c0 .3-.2.4-.6.4h-.7c-.4 0-.5.1-.5.3 0 .2.1.2.2.3.1 0 .2.1.3.2h.6c.2 0 .4.1.5.2v1.5s0 .3.1.4v.5c0 .6.1 1.1.2 1.6s.2 1.1.3 1.6c-.1.1-.1.2-.1.3.2.3.2.6.2 1 0 .3 0 .5-.1.7-.1.2-.1.4-.1.7v1c0 .9-.3 1.7-1 2.3-.3.3-.8.5-1.4.5-.6 0-1.1.1-1.5.1h-7.200000000000001c-.5 0-1-.1-1.4-.3l-1.2-.6c-.4 0-.6-.2-.6-.5s-.1-.6-.2-.8c.1-.1.1-.2.1-.3 0-.1 0-.2.1-.3-.1-.3-.2-.5-.2-.9-.1-.3-.1-.7-.1-1 0-.4 0-.8.1-1.3.1-.4.1-.9.1-1.3v-.7c.2-.3.3-.6.3-1v-1.6c0-.5.1-.8.2-1-.1-.1-.2-.3-.2-.6v-.5c0-.2 0-.4-.1-.5-.1-.1-.1-.3-.1-.4 0-.3 0-.5.1-.7.1-.2.1-.4.1-.7-.1-.5-.2-1-.2-1.5v-.9l.1-.8c-.1-.5-.2-1-.2-1.4 0-.4 0-.8.2-1.3-.2-.4-.2-.7-.2-1.1 0-.4 0-.7.1-1l.1-1c0-.3 0-.5-.1-.7-.1-.2-.1-.4-.1-.6 0-.3.1-.6.2-.8.2-.3.2-.5.2-.8 0-.2-.1-.4-.2-.5-.1-.1-.2-.3-.2-.6 0-.4 0-.7.1-1 0-.3.1-.7.1-1.1 0-.2 0-.4-.1-.6-.1-.2-.1-.4-.1-.7 0-.3.1-.5.2-.6.1-.2.2-.4.2-.6 0-.2-.1-.3-.2-.5s-.2-.4-.2-.6c0-.4.1-.7.2-.9.1-.3.2-.5.2-.8 0-.2-.1-.3-.2-.5s-.2-.3-.2-.5c0-.4.1-.7.2-1 .1-.3.2-.6.2-.9 0-.4-.1-.8-.2-1.1-.1-.4-.2-.7-.2-1.1 0-.4.1-.7.3-1.1l-.2-.5c-.1-.2-.1-.3-.1-.5 0-.3 0-.5.1-.6s.1-.3.1-.5 0-.3-.1-.5-.1-.4-.1-.6c0-.4 0-.8.1-1.1.1-.3.1-.7.1-1v-.5c.1-.3.2-.5.2-.9 0-.3.1-.6.1-1 .3-.7.9-1 1.7-1s1.6 0 2.3-.2c.3.1.6.1 1 .1s.7 0 1 .1c.3 0 .5-.1.9-.1h1c.9 0 1.7 0 2.4.1s1.5.1 2.4.1c.5 0 .9 0 1.3-.1l1.3-.1h1c.5 0 .9-.1 1.2-.3h.5c.4 0 .8 0 1.2-.1l1.2-.1c.8.1 1.2.2 1.6.3zm-14.8 18.7v-.4s-.1-.1-.3-.1h-.4c-.1 0-.2 0-.2-.1l-.5.3s-.4.2-.5.5c.1.2.2.2.4.2h.6c.1-.1.2-.2.4-.2s.4-.1.5-.2zm.1 5.3c-.3-.2-.5-.2-.7-.2h-.1c-.1 0-.1.1-.1.2s0 .1.1.1.1 0 .1.1h.5c.1-.1.2-.1.2-.2zm1 4.3c-.1-.2-.2-.3-.4-.3h-.6c-.1 0-.2 0-.3.1-.2.1-.3.2-.3.3 0 .1.1.2.4.3s.4.1.5.1c.1 0 .2 0 .4-.1l.3-.4zm-.1 9c-.3-.2-.6-.3-.8-.3l-.5.2c0 .3 0 .4.1.4l.1-.1c.2.1.2.2.2.2h.1c.3-.1.6-.2.8-.4zm.2-23.2c-.1 0-.2-.1-.3-.2-.1-.1-.2-.1-.3-.1-.1 0-.3.1-.5.2s-.3.2-.3.3c.2.1.3.2.5.2s.4.1.5.2l.2-.2h.2c.1 0 .2-.1.2-.2-.2-.1-.2-.2-.2-.2zm.3-4s.1-.1.1-.2c0 0-.1-.1-.2-.1h-.4c-.1 0-.2 0-.2-.1l-.2.2c-.1 0-.1.1-.1.3v.1h.6000000000000001c.2.1.4 0 .4-.2zm-.5 22.6h-.2c-.1 0-.2.1-.2.2.2 0 .3-.1.4-.2zm2.9-3.4l-.2-.3c-.1-.1-.2-.2-.3-.2-.4.4-1 .8-1.7 1.1l-1.1.6c0 .1.1.2.3.2h.5c.4 0 .7-.1 1-.4.3-.3.7-.4 1-.4.2 0 .4.1.5.2.1.1.2.3.3.5.1.2.2.3.4.5.2.1.4.2.7.2h1.3c.2 0 .3-.1.4-.2l.3-.3c0-.3-.2-.5-.5-.5-.4-.1-.8-.1-1.2-.1s-.9 0-1.2-.1c-.3-.2-.5-.4-.5-.8zm-1.6 6c-.1-.3-.4-.5-.9-.5-.3 0-.5.1-.5.2s.1.2.3.2c.2.1.3.1.3.2.1-.1.3-.1.5 0s.3 0 .3-.1zm1.6-16.3c-.1-.1-.1-.2-.2-.2h-.1c-.1 0-.2-.1-.4-.1s-.4 0-.5.1c-.1.1-.3.1-.5.2h-.2v.30000000000000004c0 .2.2.2.5.2s.5 0 .8-.1.6-.2.6-.4zm-.4 7.7c0-.1-.1-.1-.3-.1h-.8c-.2 0-.3.1-.3.3 0 .1.2.2.5.2.5-.1.7-.2.9-.4zm-.5-2.4l-.1-.2h-.5c0 .2.1.3.3.3.2.1.3 0 .3-.1zm.7-12.8c0-.1-.1-.2-.2-.2h-.5c0 .1 0 .1-.1.1s-.1.1-.1.2v.1c0 .1.1.1.2.1.1-.1.3-.1.5 0 .1 0 .2 0 .2-.3zm-.1 24.5c-.1 0-.2-.1-.2-.2l-.2-.1c-.2 0-.3.1-.3.3 0 .2.1.3.2.3.2.1.3.1.4.2 0 0 .1-.1.1-.3v-.2zm.5-27.3c-.1 0-.2 0-.3-.1l-.3-.1c-.3 0-.4.1-.4.2s.1.2.3.3c.2.1.3.2.5.2.3 0 .4-.1.4-.2v-.1c-.2-.1-.2-.2-.2-.2zm.1 5.5v-.2s0-.1.1-.1l-.1-.2c-.1 0-.1.1-.2.2l-.2.2h-.2c-.1 0-.1 0 0 .1v.2c.2-.2.4-.2.6-.2zm2.7 13.2v-.2c-.4.1-.8.2-1.4.2-.6 0-.9.2-.9.4 0 .3.2.4.5.5.3.1.5.2.5.2h.8c.3-.3.4-.4.5-.4.1 0 .1-.1.1-.3 0-.2 0-.3-.1-.4zm-.2-4.3c-.3-.1-.5-.1-.8-.1-.3.1-.5 0-.6-.1v-.1h-.1c-.2 0-.3.1-.3.2v.2c0 .1.1.2.4.3s.5.1.6.1c.4-.1.7-.2.8-.5zm-.4-15.8h-.5c-.3 0-.5.1-.5.2.2.2.4.3.6.3h.2c.1 0 .2-.1.2-.2v-.3zm5.9 4.1c-.6-.3-1.2-.3-1.9-.3-.7.1-1.4 0-1.9-.1-.4.2-.8.4-1.3.7s-.6.7-.6 1.3v.4c0 .1.1.3.1.5v3.8c0 .3 0 .6-.1.9v1.1c0 .3 0 .5-.1.7-.1.2-.1.5-.1.7 0 .3.1.5.2.6.2.2.2.4.2.6v.2c0 .3.2.5.7.6s1 .2 1.4.2h2.2c.3-.2.6-.4 1-.5l1.2-.3c.4-.1.7-.3 1-.5.3-.2.5-.4.6-.7.7-.4 1.1-.9 1.3-1.5.2-.7.3-1.4.3-2.3v-1c.2-.2.2-.3.2-.5 0-.7-.2-1.2-.6-1.5-.4-.4-.6-.7-.7-1.1-.3-.2-.5-.4-.7-.6s-.5-.4-.7-.6c-.3-.2-.5-.4-.9-.5-.1-.1-.4-.2-.8-.3zm-4.1-2.4c0-.1 0-.2-.1-.2h-.4c.2.2.3.2.5.2zm1.3 20.7c-.3-.1-.4-.3-.6-.5s-.3-.3-.6-.3c-.1.1-.2.2-.2.4s.2.5.7.8l.9.7c.2-.1.3-.1.5-.1.2.1.3 0 .4-.1h.5c.3.2.5.3.7.4l.5.2c.1.1.2.1.2.1.2 0 .3 0 .3-.2-.1-.2-.3-.4-.6-.5-.3-.1-.5-.2-.6-.2h-.4c-.2 0-.4-.1-.7-.4-.4-.1-.7-.2-1-.3zm0-3c-.2 0-.2 0-.3-.1 0-.1-.1-.1-.1-.1-.1 0-.1 0-.2.1l-.2.2c0 .2.1.2.2.2h.30000000000000004c0-.1 0-.1.1-.1.2 0 .2-.1.2-.2zm1.6 8.3c0-.1-.1-.2-.2-.2h-.4c-.1 0-.1 0-.1-.1h-.5c-.2.2-.3.3-.3.5v.2h.8c.3 0 .5-.2.7-.4zm.7-2.3c-.1-.2-.3-.2-.7-.2-.3 0-.5.1-.5.2.1.1.1.2.1.3 0 .1.1.2.3.2.5-.1.7-.2.8-.5zm2.1-3.9c-.1 0-.2-.1-.4-.2l-.7-.3-.8-.3c-.3-.1-.4-.1-.5-.1-.3 0-.6.1-.8.3 0 .3.3.5.7.5h.8c.4 0 .7.1.8.4.1.3.3.4.7.4.1 0 .2 0 .3-.1-.1-.1-.1-.2 0-.3 0-.2 0-.3-.1-.3zm-1.6 8.5c-.1 0-.2 0-.2-.1s-.1-.1-.2-.1h-.2v-.2c-.1.1-.3.1-.5.1s-.3.1-.3.3h.2c.1 0 .2.1.2.2.2-.1.3-.1.5-.1.4.1.5.1.5-.1zm1.5-.8c0-.1-.1-.2-.2-.2-.2 0-.2.1-.2.3l.1.1c.1 0 .2-.1.3-.2zm2.2 1.4v-.2c-.3 0-.5.1-.6.2l-.4.4c.1.1.2.1.3.1.1 0 .2-.1.4-.2l.3-.3zm-.5-13.4c-.2-.1-.3 0-.5.2.2 0 .4-.1.5-.2zm1.2 3.9l-.7-.7c-.3-.3-.5-.4-.5-.5-.3 0-.4.1-.5.3l.7.7c.3.3.6.4.8.4l.2-.2zm1.6-16.4c-.1-.1-.2-.2-.4-.3-.2-.1-.3-.2-.5-.2-.3 0-.4.1-.4.4 0 .2.2.3.6.3.2 0 .4-.1.7-.2zm.8 11.8c-.2-.3-.5-.5-1-.5-.2 0-.3 0-.3.1-.1.1-.1.1-.2.1h-.2c-.1 0-.1.1-.1.2 0 .3.2.4.5.4s.6.1.8.2c.1-.1.2-.2.3-.2.2-.1.2-.2.2-.3zm-.3 17.9c0-.1-.1-.1-.2-.1s-.2 0-.2-.1c-.1.1-.2.1-.3.1s-.2.1-.3.2h-.2s-.1.1-.1.3c.1.2.2.2.4.2h.5c.1-.1.2-.2.3-.2.1-.2.1-.2.1-.4zm.6-23.6c0-.2-.1-.2-.3-.2h-.5l-.2.2c0 .2.1.2.2.2.4 0 .6-.1.8-.2zm1.2-2.6c-.1 0-.1 0-.1-.1 0 0-.1-.1-.2-.1-.2 0-.2 0-.2-.2l-.1.1h-.4c-.1.1-.1.1-.2.1 0 .1 0 .1.2.1.1 0 .2.1.2.2h.6000000000000001c.1.2.2.1.2-.1zm0-6.7c-.2 0-.2 0-.2-.1 0 0-.1-.1-.2-.1l-.2.2v.1h.4c.1.1.2 0 .2-.1zM274.4 7c.2 0 .5-.1.8-.1.4 0 .8 0 1.2.1s.8.1 1.2.1h1.5c.7 0 1.1.2 1.3.6.2.4.5.7.9.8l.9 1.3c.3.5.7.9 1.1 1.3.2.4.4.8.6 1.3.2.5.5.8.8 1 .2.3.4.6.8 1.1.4.5.6.8.6.9.2.4.3.7.6.9l.7.8.6.8c.2.3.4.6.5 1 .3.6.8 1.1 1.4 1.6.6.5 1.1 1.1 1.3 1.8.1.5.3.9.6 1.2.3.3.6.7.7 1.2.1.3.2.5.5.7s.6.5.8.7v.2c.3.5.6.9.8 1.3.2.4.5.7.8 1 .3.3.5.6.8.7 0 .4.1.8.4 1.2.3.4.5.8.8 1.1.3.4.6.7.9 1 .3.3.4.6.5.9.3.4.5.8.7 1.3s.6.7 1.2.7c.4 0 .6-.1.6-.4.1-.3.2-.5.5-.6-.2-.4-.3-.9-.3-1.6v-2.3c0-.2 0-.4.1-.7-.1-.2-.1-.3-.1-.6v-1.2999999999999998c0-.2 0-.4.1-.5v-1.7999999999999998c0-.4-.1-.7-.2-1s-.2-.6-.2-1v-2.7s.1-1.8.2-2.7c-.3-.5-.5-1-.5-1.8 0-.6 0-1.3.1-2 0-.7.1-1.4.2-1.9-.2-.4-.2-.8-.2-1.3s0-.9.1-1.4c.1-.5.1-1 .1-1.5-.1 0-.1-.1-.1-.2 0-.3.1-.5.4-.7.3-.2.6-.3 1-.4.4-.1.9-.2 1.3-.2.5 0 1-.1 1.4-.1.9 0 1.8.1 2.5.2.3-.1.5-.2.8-.2h3.8000000000000003c.3.2.7.3 1.1.2.4 0 .7 0 1 .2 0 .3.3.6.6.8s.6.7.6 1.3c0 .3 0 .5-.1.8-.1.3-.1.4-.1.5 0 .1 0 .2.1.4l.1.6c0 .2 0 .3-.1.5s-.1.4-.1.5c0 .1 0 .2.1.4.1.3.2.5.2.7 0 .4 0 .8-.1 1.1-.1.4-.1.7-.1 1.1v2.7c0 .2-.1.4-.2.7.1.1.2.3.2.7 0 .2 0 .3-.1.5s-.1.4-.1.7c0 .2 0 .3.1.5 0 .2.1.4.1.7 0 .5-.1.8-.2 1 .1.1.2.3.2.6 0 .2 0 .4-.1.6-.1.2-.1.4-.1.5 0 .6 0 1.1.1 1.6l.1 1.6v1.3c0 .4-.1.9-.2 1.3.1.2.2.3.2.5v7.7c0 .1.1.3.1.7 0 .4 0 .8-.1 1.1-.1.4-.1.7-.1 1.1v3.2c0 .3 0 .6-.1.9-.1.3-.1.5-.1.8 0 .3 0 .5.1.6l.1.6c0 .3-.1.5-.2.6v.6c0 .4 0 .7-.1 1.1-.1.4-.1.7-.1 1.1 0 .3 0 .5.1.6-.1.2-.1.4-.1.7v2c0 .5-.2 1-.6 1.5-.4.5-.9.9-1.4 1.1h-1.8c-.5 0-1-.1-1.5-.2s-1-.2-1.4-.2c-.6 0-1.2 0-1.9.1-.6.1-1.3.1-1.9.1-.8 0-1.7-.2-2.7-.5-1.1-.3-1.8-.9-2.2-1.8-.2-.4-.4-.6-.6-.8-.3-.2-.5-.5-.6-.9-.9-.9-1.5-1.7-2-2.6-.5-.8-.9-1.5-1.1-1.9-.3-.2-.5-.4-.7-.6l-.5-.8-.4-.8c-.2-.3-.4-.5-.8-.6-.3-.3-.5-.6-.5-1-.1-.4-.3-.7-.8-1-.1-.4-.3-.7-.6-1s-.5-.5-.6-1c-.1-.3-.2-.5-.4-.7l-.6-.6-.6-.6c-.2-.2-.3-.5-.3-.7-.2-.4-.5-.7-.8-.9-.3-.2-.5-.5-.6-.9-.2-.1-.3-.2-.3-.4s-.1-.3-.3-.4l-.8-.8c-.3-.3-.4-.6-.5-1-.2-.3-.4-.5-.6-.6-.3-.2-.4-.4-.5-.6 0-.6-.3-1-1-1.4-.4-.3-.6-.6-.6-1.1-.1-.5-.4-.8-.9-.9-.1-.2-.2-.3-.2-.5l-.2-.5c.1-.2.3-.3.5-.3s.4-.1.4-.4c0-.2-.1-.3-.3-.3-.2-.1-.4-.1-.7-.2-.3-.1-.6-.1-.8-.2-.3-.1-.5-.2-.6-.3l-.3-.3-.3-.2c-.3.1-.4.3-.3.7 0 .4-.1.6-.5.7h-.3c-.3 0-.6.1-1 .2-.4.2-.7.4-.8.8h-.3c-.4 0-.7.1-1 .4 0 .5.2.7.5.7.2 0 .4-.1.6-.4.2-.3.4-.4.6-.4.5-.1.9-.2 1.4-.4s.8-.4 1-.8h.7c.2 0 .4.1.5.2-.1.4-.2.6-.4.9s-.3.5-.3 1l.1.2.1.8v1.5s0 .5-.1.7c0 .3.1.6.1 1v2s0 .6-.1.8c.1.6.2 1.1.2 1.6v1.7c.1.1.2.3.2.6 0 .4-.1.6-.2.8-.1.2-.2.4-.2.6 0 .3 0 .5.1.8s.1.6.1 1c0 .3-.1.5-.2.8-.1.3-.2.6-.2 1v1.3c.1.1.2.2.2.4v.2c0 .2 0 .3.1.5 0 .2.1.3.1.4 0 .4 0 .7-.1 1-.1.3-.1.7-.1 1 0 .3.1.6.1 1v1.6c0 .3 0 .5.1.7 0 .2.1.4.1.7 0 .4-.2.6-.5.9s-.6.5-.8.7c-.4.1-.8.2-1.3.2-.4 0-.9.2-1.3.3-1.2-.1-2.5-.1-3.8-.1-1.4 0-2.7 0-3.8-.1-.2 0-.3 0-.5.1l-.6.1c-.5 0-1-.3-1.3-.8s-.6-1.1-.6-1.6l.2-.3c.1-.1.1-.2.1-.4 0-.1 0-.2-.1-.2s-.1-.1-.1-.2v-.4c0-.2 0-.4-.1-.6s-.1-.5-.1-.7c0-.6.1-1.1.2-1.7.1-.6.2-1.2.2-1.8 0-.4-.1-.7-.2-1.1-.1-.4-.2-.7-.2-1.1 0-.4.1-.8.2-1.2.1-.4.2-.8.2-1.2-.1-.5-.1-1.1-.1-1.7v-1.5c.2-.2.2-.3.2-.5 0-.4-.1-.7-.3-1-.2-.2-.3-.5-.3-1v-.5c0-.2 0-.3.1-.5-.1-.2-.2-.4-.2-.6 0-.3.1-.5.2-.7.1-.2.2-.4.2-.7 0-.2-.1-.4-.2-.5s-.2-.3-.2-.5 0-.3.1-.5.1-.4.1-.6c0-.2 0-.3-.1-.5s-.1-.3-.1-.5c0-.3 0-.5.1-.7.1-.2.1-.4.1-.6 0-.3-.1-.5-.2-.6v-1.9c0-.7.1-1.4.2-2-.1-.3-.2-.5-.2-.6 0-.6.1-1.1.2-1.7.1-.6.2-1.1.2-1.7 0-.7 0-1.3-.1-1.9s-.1-1.2-.1-1.8 0-1 .1-1.1.1-.4.1-.6c0-.4 0-.8-.1-1.1-.1-.3-.1-.7-.1-1.1 0-.6.1-1.2.2-1.8l-.2-.2v-.2c0-.1 0-.2-.1-.3-.1-.1-.1-.2-.1-.3 0-.3 0-.5.1-.6.1-.2.1-.4.1-.6 0-.3-.1-.5-.2-.7-.1-.2-.2-.4-.2-.7 0-.8.3-1.5.9-2 .6-.5 1.5-.8 2.6-.8h1.5c.1-.2.3-.2.7-.2.4 0 .8 0 1.2.1s.8.1 1.2.1c.9.2 1.2.2 1.4.2zm-2.3 11.8c-.1-.1-.2-.2-.3-.2-.1 0-.2 0-.3.1l-.3.2v.4c-.1.2 0 .2.2.2s.3-.1.3-.2c0-.2.2-.2.3-.2h.1s.1 0 .1-.1v-.2h-.1zm1.4 8.4l-.3-.3c-.1-.1-.3-.2-.5-.2h-.7c-.5 0-.9.2-1.1.5.2.2.4.3.6.3.3.1.5.1.7.2.2.1.4.1.5.1h.1v-.1l.1-.1h.2c.4-.1.4-.2.4-.4zm-1.2-11.8c-.1-.1-.2-.2-.3-.2h-.6v.1c0 .2.1.3.2.3h.5c0-.1 0-.1.2-.2zm.6 29.6h-.4c-.2 0-.4 0-.7.1s-.4.2-.4.3c0 .1 0 .2.2.2.1.1.2.1.3.1.1 0 .2 0 .4-.1s.3-.1.5-.1l.1.1s.1 0 .1-.2v-.4h-.1zm3.2-24.1h-.4c-.4 0-.7.1-1 .2-.3.1-.6.2-1 .2-.2 0-.3 0-.5-.1s-.2-.2-.3-.2c-.1 0-.2.1-.4.2s-.3.2-.3.2v.4c.3.1.5.2.9.2.3.1.6.1 1 .1s.8-.1 1.4-.2c.6-.1.9-.3.9-.6 0 0 0-.1-.1-.1h-.1v-.30000000000000004zm3.6-3.4l-.2-.1c-.3 0-.5.1-.6.3s-.5.3-1.1.3c-.4 0-.6 0-.8-.2-.3.1-.5.2-.7.4s-.4.3-.8.3-.6-.1-.8-.1c-.2 0-.4 0-.7-.2-.3.1-.5.2-.6.2-.2 0-.3.1-.4.3.1.2.3.3.5.5.3.2.5.3.6.3h1.1c.2 0 .4 0 .6.1s.5.1.7.1c.2 0 .3 0 .3-.1 0-.4.3-.6.8-.7.5-.1.9-.1 1.3-.2.1-.3.2-.5.3-.7l.5-.5zm-4.9 11.4c-.1-.2-.3-.3-.5-.3-.1 0-.2.1-.3.2-.1.1-.2.2-.2.3 0 .1.1.2.2.3s.2.1.3.1c.4-.1.5-.2.5-.6zm4.2-6.5c-.2-.3-.4-.4-.7-.4 0 0-.1.1-.3.2-.3.1-.6.3-1 .4s-.7.3-1.1.5c-.3.2-.5.3-.5.4 0 .2.1.3.3.4.2.1.4.1.6.1.2 0 .4.1.6.2.2.1.3.2.3.4 0 .3-.1.4-.3.5-.2.1-.4.1-.5.1-.2 0-.4-.1-.7-.1-.3 0-.4-.1-.5-.3h-.6000000000000001c-.3 0-.4.1-.4.3 0 .1.1.1.2.2s.2.1.3.1c.2.1.3.3.5.6s.3.4.3.3h.6c.1 0 .2 0 .2-.1.4 0 .7.1 1 .2.3.1.5.2.8.2.3 0 .5-.1.6-.3.2-.2.4-.3.6-.4 0-.3-.1-.4-.2-.5v-.30000000000000004c0-.2-.1-.3-.2-.4-.1-.1-.3-.1-.5-.2l-.6-.2c-.2-.1-.3-.2-.3-.4 0-.3.1-.5.2-.6l.4-.3c.2 0 .3-.1.4-.2.5-.1.5-.2.5-.4zm-2.1 5.4c-.1-.1-.3-.2-.5-.2-.3 0-.4.2-.4.5 0 .1 0 .2.2.2.1 0 .2.1.3.2.2-.1.4-.3.4-.7zm.5-11.8v-.2c0-.1-.1-.2-.2-.2-.4 0-.6.1-.6.2s.1.1.2.1c0 .2.1.2.2.2v-.1h.4zm3.1 4.5h-1.4c-.5 0-.8 0-.9-.2-.1-.1-.3-.2-.6-.2s-.4.1-.4.2c.1.3.3.4.5.6.3.1.5.3.7.6 0-.2.2-.3.4-.3h1.2c.2 0 .3-.1.4-.3.2-.1.1-.3.1-.4zm-1.5 11.9c-.1-.3-.2-.4-.4-.4h-.5c-.2.1-.4.2-.5.2-.2.1-.3.2-.4.3 0 .1.1.2.2.2s.2.1.3.2c.3 0 .5-.1.6-.2.3-.1.5-.2.7-.3zm4-8.3c-.4 0-.8-.1-1.1-.2s-.7-.2-1.1-.2c-.3 0-.5 0-.8.1-.3.1-.4.3-.4.6s.3.4 1 .4 1.2 0 1.5.1c.3 0 .4 0 .6-.1l.3-.2v-.5zm-.2 2.4h-.3c-.4 0-.7 0-1-.1-.3 0-.6-.1-.9-.2v.2c0 .1.1.2.4.3s.5.1.6.1h.8c.3.1.4-.1.4-.3zm-.1-8.4c-.3-.3-.6-.4-1.1-.4h-.5c.2.3.5.4.9.5.4.1.6.1.5.1h.2v-.2zm1.9 3.3c-.3-.5-.6-.7-1.1-.7-.3 0-.4 0-.4.1s-.1.3-.2.6c.2.2.5.3 1 .3h.4s.2 0 .2-.2v-.1zm12.9 17.9c-.2-.2-.3-.2-.3-.2-.2 0-.2.1-.2.2h.1c.1 0 .2 0 .2.1s.1.1.2.1v-.2zm1.7 3.8c-.2-.1-.4-.2-.7-.2-.3 0-.5.1-.5.3 0 .3.1.4.3.4h.7c.2 0 .2-.2.2-.3v-.2zm.4-2.2c-.2 0-.3 0-.4-.1-.1-.1-.3-.1-.5-.1s-.3.1-.3.2.1.2.3.2l.6.2s.4.1.6.2c.2.1.3.1.3.2.2 0 .4-.1.5-.3-.3-.1-.4-.2-.5-.3-.2-.2-.3-.2-.6-.2zm0-3.7c-.1-.2-.2-.2-.3-.2-.4 0-.6.1-.6.4 0 .1.1.2.3.4.2-.1.3-.2.4-.2.1-.1.2-.2.2-.4zm7.8 1.7l-.1-.2c-.2-.1-.4-.2-.5-.2-.3 0-.5 0-.7.1-.2.1-.3.3-.5.6v.2c0 .2-.1.3-.4.4-.3.1-.4.1-.5.1-.2 0-.4 0-.5-.1-.2 0-.3-.1-.5-.2-.2-.4-.6-.6-1.1-.6-.5 0-.9-.1-1.2-.3h-.8c-.5 0-.7.1-.7.4 0 .1 0 .2.2.2v.1c.4-.1.7-.2.8-.2.2 0 .4.1.7.2s.6.3.8.5c.3.2.5.4.7.6.2.2.3.4.3.5 0 .3-.1.4-.2.5-.1.1-.3.2-.5.2l-.5.2s-.3.2-.3.3c.1.2.2.3.2.5s.1.2.3.2c.4-.2.8-.3 1.2-.3s.9-.1 1.2-.2c0-.3-.1-.4-.3-.5-.2-.1-.3-.3-.3-.5 0-.3.2-.4.5-.4s.5 0 .8.1c.3.1.4.1.4.2.1-.1.2-.1.3-.1.1.1.1 0 .2-.2.3.2.7.2 1.1.2.3 0 .5-.1.7-.2.2-.2.3-.2.4-.2h.30000000000000004c0-.1-.1-.1-.2-.1h-.3c-.3 0-.5 0-.7.1-.2.1-.5.1-.8.1-.3 0-.5-.1-.7-.3-.2-.2-.3-.4-.3-.6 0-.2.1-.3.2-.4s.3-.1.5-.2l.5-.1c.2 0 .2-.2.2-.3v-.1zm-5.1 5.2v-.4c0-.1 0-.2-.1-.2s-.2.1-.4.2-.3.2-.4.2h-.1c-.1.1-.1.2-.3.2s-.2.1-.2.2c0 .3.2.4.6.4.1 0 .2 0 .4-.1s.4-.3.5-.5zm-.3-6.5c-.2-.2-.4-.3-.6-.3s-.3.1-.3.2.1.2.2.3c.1.2.2.3.4.3.3 0 .4-.1.4-.4v-.1zm-.4 9.2c-.1-.1-.2-.2-.5-.2 0 .2.1.2.2.2h.30000000000000004zm3.1-1.2c-.3-.2-.5-.3-.8-.3-.2 0-.4.1-.7.2-.3.1-.5.2-.5.3 0 .2.1.3.3.3.2.1.5.1.8.2.3.1.5.1.8.1s.3 0 .3.1.2.1.4.1c.4 0 .7-.2 1-.6-.1-.2-.3-.2-.6-.2h-.5l-.5-.2zm-.6-9.5c-.1-.3-.4-.4-.8-.4-.3 0-.5.1-.6.2v.5c0 .1.1.2.3.3.2.1.4.1.6.1.3 0 .5 0 .5-.2v-.5zm0 12.1c-.1-.2-.3-.2-.5-.2s-.3.1-.5.2c.1.2.3.3.5.3 0 0 .1-.1.2-.1h.2l.1-.2zm1.1-10.5c0-.2-.1-.2-.2-.2h-.5c-.1.2-.2.3-.3.3-.1.1-.2.2-.2.3 0 .3.1.4.3.4h.7c0-.1 0-.2.1-.4s.1-.3.1-.4zm-.3 6.4c0-.2-.1-.2-.4-.2-.1 0-.2 0-.4.1s-.2.1-.2.2c0 .2.1.3.2.3 0 .1.1.1.2.2.2 0 .3-.1.4-.2.1-.1.2-.3.2-.4zm0-9.9s.1-.1.1-.2-.1-.2-.2-.2c-.3 0-.4.1-.5.2 0 .1.1.2 0 .3 0 .1 0 .2.2.2.1 0 .2 0 .2-.1.1 0 .2-.1.2-.2zm.7 16.3c-.3-.2-.6-.3-.8-.3-.2 0-.3.1-.3.2s0 .1.1.1.1.1.2.2h.4c.2.1.4 0 .4-.2zm.8-7.3c0-.2-.1-.2-.2-.2h-.2c0 .2 0 .2.2.2h.2zm.7-9.9c-.2-.2-.4-.2-.6-.2-.2 0-.2.1-.2.2v.1c0 .1 0 .1.1.2h.5c.1 0 .2-.1.2-.3zm.6 17.6c-.1-.2-.3-.2-.5-.2h-.5v.1c0 .1 0 .2.1.2l.2.2h.5c.1 0 .2-.1.2-.3zm-.3-6.8c-.1 0-.1-.1-.2-.2s-.1-.1-.2-.1c-.2 0-.3.2-.3.5 0 .2.1.3.3.3l.2-.2c.1-.1.2-.2.2-.3zm.7-23c0-.1-.1-.1-.3-.1h-.4l-.3.2c-.1.1-.2.2-.2.4 0 .1.1.2.2.2.4 0 .6-.1.7-.2.1-.3.2-.4.3-.5zm2.2 21.8h-1.7c-.2.2-.2.3-.2.3 0 .2.1.3.3.3h1.9000000000000001c0-.2-.1-.3-.2-.3s-.1-.1-.1-.3zm-1.6-27.5c0-.2-.1-.2-.2-.2 0 .2 0 .3.2.2-.1.1-.1 0 0 0zm.6 2.6h-.4c-.3 0-.4.1-.5.2 0 .1.1.1.2.1s.2 0 .3-.1c.2-.1.3-.1.4-.2zm.7 11.2c0-.2-.1-.2-.4-.2-.2 0-.3.1-.3.2s0 .2.2.2h.4c0-.2 0-.2.1-.2zm.1 18.8v-.2c0-.1-.1-.2-.3-.2-.4 0-.5.1-.5.2.1.1.2.1.2.2s.1.1.2.1c0 0 .1 0 .2-.1 0 .1.1 0 .2 0zM340.1 5.8h.3c.4 0 .7.1 1 .2.3.1.6.2.9.2h1c.4 0 .8 0 1.3.1s.9.2 1.4.2c.4.1 1 .2 1.6.4l.9.3c.3.1.6.2.8.2.5.5 1 .7 1.7.8s1.2.4 1.6.9c.6.3 1 .6 1.4 1 .4.4.7.9 1 1.5-.1.1-.1.2-.1.4s0 .3-.1.4c-.1.4-.3.8-.5 1.1-.2.4-.4.7-.5 1.1-.1.8-.4 1.4-.8 1.9-.4.4-.6 1-.6 1.6-.2.6-.5 1.2-1 1.8-.5.7-1 1-1.5 1-.4 0-.8 0-1.2-.2-.4-.1-.7-.4-1-.8-.2 0-.3-.1-.3-.2-.1-.2-.2-.2-.4-.2-.9-.9-1.9-1.3-3.2-1.3-.6 0-1-.1-1.2-.4-.3-.3-.7-.4-1.4-.4-.5 0-1 .1-1.6.2s-1.2.3-1.7.6-1 .5-1.3.7c-.4.2-.5.4-.5.5 0 .2 0 .3.2.4-.1.1-.2.3-.2.7v1.4c0 .4.1.8.4 1.1.3.4.6.7 1.1 1l1.5.8 1.5.6c.4.2.8.2 1.3.2.4 0 .8.1 1.1.4.3.3.7.4 1.2.6.6.1.9.2 1.1.2.9.3 1.7.5 2.6.6.8.1 1.5.4 2.1.8 1 .5 2 1.1 3 1.9 1 .7 1.7 1.5 1.9 2.2.5.6.9 1.1 1.3 1.6s.6 1.2.6 2.1v.2c0 .3.1.4.3.5.2.1.3.3.3.5v.2c.3.7.4 1.5.4 2.4 0 .9.1 1.8.2 2.6-.1.1-.2.2-.3.5s-.1.7-.2 1.1l-.1 1.3v1c-.4.4-.6.9-.6 1.6 0 .6-.3 1.1-.7 1.5-.3.6-.5 1.1-.8 1.6-.3.5-.6 1-.9 1.6-.1.4-.3.7-.7.8-.4.1-.6.3-.8.6-.3.1-.4.2-.5.3-.1.2-.2.3-.4.4-.2.3-.5.6-.8.8-.3.2-.6.4-1 .6-.4.2-.7.4-1 .6-.3.2-.6.5-.8.8-.7.1-1.4.3-2.2.7-.8.4-1.7.6-2.7.6-1 .3-2.1.4-3.4.3-1.2 0-2.5 0-3.6.1-.4.2-.9.2-1.4.2-.5 0-.9 0-1.4-.1s-.9-.1-1.4-.1c-.1-.1-.2-.1-.2-.2s-.1-.1-.1-.1h-.2c-.1-.1-.4-.1-.8-.3-.4-.1-.9-.3-1.4-.4l-1.4-.5c-.4-.2-.7-.3-.7-.3-.4-.1-.7-.2-1-.4l-.9-.5c-.3-.4-.6-.6-1-.7-.4-.1-.8-.3-1.1-.6-.1 0-.2-.1-.3-.3l-.5-.4c-.2-.1-.3-.2-.4-.3-.1-.1-.2-.1-.2-.1-.6-.3-1.1-.6-1.5-1.1-.4-.5-.6-1.1-.6-1.8 0-.2 0-.5.2-.9.1-.4.2-.7.3-1 0-.2.1-.3.2-.3s.2-.2.2-.4c.4-.4.7-.8.9-1.3.2-.5.5-.9.9-1.3.3-.3.5-.5.6-.8.2-.3.3-.5.4-.8 0-.4.2-.6.4-.8l.6-.5s.5-.3.7-.5c.2-.2.4-.4.5-.6.3-.1.6-.2.9-.2.4 0 .7.1.9.3.3.2.5.4.6.5.3.1.5.3.6.6.1.3.3.5.7.6l1.1.8c.4.3.7.5 1 .8.5.2.9.5 1.2.8.4.4.8.6 1.4.8.2.2.4.3.6.4.3.1.5.1.8.1.3 0 .5 0 .8.1.3.1.5.2.6.3.6 0 1.1-.1 1.5-.2.4-.1.9-.2 1.4-.2.3 0 .5 0 .7.1.6-.3 1.1-.5 1.6-.9.5-.3.7-.9.7-1.6l.6-.6c.2-.2.3-.5.3-.8v-.2s.1-.1.1-.2v-.4c-.3-.2-.4-.4-.3-.7 0-.3 0-.6-.1-.8-.3-.9-.8-1.5-1.5-2s-1.5-.9-2.2-1.3h-.2c-.6 0-1-.1-1.4-.4-.4-.3-.8-.4-1.3-.5-.4 0-.8-.1-1.2-.3-.4-.2-.6-.3-.7-.3-1.2-.3-2.3-.7-3.5-1.2-1.1-.6-2.2-1.1-3.2-1.7-.2-.1-.5-.2-.8-.4l-1-.6c-.3-.2-.6-.4-.8-.6-.2-.2-.3-.4-.3-.5-.5-.5-.9-.9-1.4-1.3-.5-.4-.7-1-.8-1.8-.3-.1-.5-.3-.6-.7-.2-.4-.3-.7-.3-1v-.9c0-.5-.1-1-.3-1.6-.2-.6-.3-1.2-.3-1.9v-1.2c-.1 0-.1-.1-.1-.2 0-.2.1-.6.2-1.1s.2-1.1.4-1.6c.2-.6.3-1.1.4-1.5.1-.4.2-.7.3-.7.2-.6.4-1.1.7-1.5.3-.4.5-.9.7-1.4.5-.4.8-.8 1.1-1.3.3-.5.7-.9 1.2-1.1.5-.5.8-.9 1-1.4l1.6-.7c.2-.3.4-.4.6-.6l.8-.3.9-.3c.3-.1.6-.2.8-.4.4-.2.9-.4 1.5-.6.6-.2 1.1-.3 1.5-.3h.6c.6 0 1.1-.1 1.5-.2s1-.2 1.8-.2h.8zm-5.6 17.1c-.3-.2-.7-.2-1.1-.2h-1.1c-.3.1-.5.2-.7.2-.2 0-.4.1-.5.3.1.2.2.2.5.2.2 0 .3 0 .4-.1l.3-.1h.2c.2-.1.4-.2.6-.2.3 0 .5.1.8.2.3.2.5.3.8.3 0-.1.1-.2.2-.2 0 0 .1-.1.1-.2l-.2-.2h-.3zm-2.3-6.5c0-.2-.1-.2-.3-.2h-.4c-.1.1-.2.2-.2.3 0 .1.1.2.2.2h.3c.3 0 .4-.1.4-.3zm1.6 8.9c-.2 0-.4-.1-.8-.1-.5 0-.8.1-.8.3 0 .3.2.4.6.4h.5c.3 0 .4-.1.4-.2v-.2c.1-.1.1-.1.1-.2zm.7 5.7c-.1 0-.2-.1-.4-.1h-.7c0 .1-.1.1-.2.1s-.2.1-.2.1l.1.1v.2h.7c.4 0 .5-.1.7-.4zm.8-11.9c-.1-.1-.2-.1-.4-.1h-.4c-.3 0-.6.1-.8.3-.2.2-.3.3-.3.4 0 .1 0 .1.2.2.1.1.2.2.2.3.3-.1.7-.2 1.2-.4s.7-.3.7-.4c0-.1 0-.1-.1-.1-.2-.1-.2-.1-.3-.2zm-1.2 30.3c0-.2-.2-.2-.5-.2-.2 0-.3.1-.3.2s.1.2.2.2h.4c.2 0 .2-.1.2-.2zm2.6-22.2c-.2-.3-.3-.4-.5-.4-.1 0-.2.1-.3.2 0 .2 0 .3.1.4h.5s.1 0 .1-.1v-.1h.1zm3-1.2c-.1-.1-.2-.2-.3-.2-.1 0-.2 0-.6.1-.3.1-.5.3-.5.6.1.1.2.1.2.1h.2c.1 0 .3 0 .5-.2.3-.1.4-.2.4-.4zm-.4 28.1c0-.1-.1-.2-.2-.2h-.6l-.1.1c0 .1 0 .1.1.2s.1.1.1.2h.5c.1 0 .2 0 .2-.1v-.2zm3.8-27.4c0-.2-.1-.2-.3-.2-.1 0-.2.1-.2.2s0 .1.1.2c.2 0 .3-.1.4-.2zm.3 27.2c-.2 0-.3 0-.3-.2h-.30000000000000004c-.1 0-.2.1-.2.2s.1.1.2.2c.2.1.3.1.4.1.2-.1.2-.2.2-.3zm3.4-16.1c-.3-.1-.6-.1-1.1-.1-.1.1-.2.2-.3.2s-.1.1-.1.2 0 .1.1.2l.1-.1c0 .1.1.1.2.1.1.1.3.1.5.1.5 0 .7-.1.7-.2v-.4h-.1zm-.1 4.6c-.1-.1-.2-.2-.4-.2h-.6000000000000001c0 .1-.1.1-.2.1h-.2c0 .3.2.5.5.5h.5c.2 0 .3-.1.3-.3v-.1zm-.1-7c-.1 0-.2 0-.2-.1v-.1h-.5c-.1.1-.2.1-.3.1-.2.1-.2.2-.2.2 0 .1.1.2.2.2h.5c.3 0 .5-.1.5-.3zm.1 9.7c-.3-.2-.5-.2-.7-.2h-.3c-.1 0-.2.1-.2.2s.1.1.3.2c.2.1.3.2.4.2.2 0 .3 0 .3-.1s.1-.2.2-.3zm-.4 4.7h-.30000000000000004c-.2 0-.3.1-.3.2l.2.2c.1 0 .2 0 .2-.1 0-.3.1-.3.2-.3zm5.1-5.1v.2c0 .1 0 .2.2.2l.2-.1c-.1-.2-.2-.3-.4-.3z"/></svg>